<svg
      width="80"
      height="80"
      viewBox="0 0 80 80"
      fill="none"
      xmlns="http://www.w3.org/2000/svg"
    >
      <path
        d="M9.61031 27.9812V26.5455H17.1536V27.9812H14.2314V36H12.5325V27.9812H9.61031Z"
        fill="currentColor"
      ></path>
      <path
        d="M20.2051 31.8452V36H18.534V26.5455H20.1682V30.114H20.2513C20.4175 29.7139 20.6745 29.3985 21.0222 29.1676C21.3731 28.9337 21.8193 28.8168 22.361 28.8168C22.8534 28.8168 23.2828 28.9199 23.649 29.1261C24.0153 29.3323 24.2984 29.6339 24.4984 30.0309C24.7016 30.4279 24.8031 30.9127 24.8031 31.4851V36H23.132V31.7436C23.132 31.2666 23.0089 30.8957 22.7626 30.6311C22.5195 30.3633 22.1779 30.2294 21.7378 30.2294C21.4423 30.2294 21.1777 30.2941 20.9438 30.4233C20.7129 30.5495 20.5314 30.7326 20.399 30.9727C20.2698 31.2127 20.2051 31.5036 20.2051 31.8452Z"
        fill="currentColor"
      ></path>
      <path
        d="M29.6458 36.1385C28.9349 36.1385 28.3209 35.9908 27.8038 35.6953C27.2899 35.3968 26.8944 34.9752 26.6174 34.4304C26.3404 33.8826 26.2019 33.2378 26.2019 32.4961C26.2019 31.7667 26.3404 31.1266 26.6174 30.5757C26.8975 30.0217 27.2883 29.5908 27.79 29.283C28.2917 28.9722 28.881 28.8168 29.5581 28.8168C29.9951 28.8168 30.4075 28.8876 30.7953 29.0291C31.1862 29.1676 31.5309 29.3831 31.8294 29.6754C32.131 29.9678 32.368 30.3402 32.5403 30.7926C32.7127 31.242 32.7989 31.7775 32.7989 32.3992V32.9116H26.9867V31.7852H31.197C31.1939 31.4651 31.1246 31.1804 30.9892 30.9311C30.8538 30.6788 30.6645 30.4802 30.4214 30.3356C30.1813 30.1909 29.9013 30.1186 29.5812 30.1186C29.2396 30.1186 28.9395 30.2017 28.681 30.3679C28.4225 30.531 28.2209 30.7465 28.0762 31.0142C27.9346 31.2789 27.8623 31.5697 27.8592 31.8867V32.87C27.8592 33.2825 27.9346 33.6364 28.0854 33.9318C28.2363 34.2242 28.4471 34.4489 28.7179 34.6058C28.9887 34.7597 29.3057 34.8367 29.6689 34.8367C29.912 34.8367 30.1321 34.8028 30.3291 34.7351C30.526 34.6643 30.6968 34.5612 30.8415 34.4258C30.9861 34.2904 31.0954 34.1226 31.1693 33.9226L32.7296 34.098C32.6311 34.5104 32.4434 34.8705 32.1664 35.1783C31.8925 35.483 31.5417 35.72 31.1139 35.8892C30.6861 36.0554 30.1967 36.1385 29.6458 36.1385Z"
        fill="currentColor"
      ></path>
      <path
        d="M42.1692 38.6591V34.8828H42.0999C42.0137 35.0552 41.8891 35.2383 41.726 35.4322C41.5629 35.623 41.3474 35.7861 41.0797 35.9215C40.8119 36.057 40.4749 36.1247 40.0687 36.1247C39.5116 36.1247 39.013 35.9816 38.5729 35.6953C38.1328 35.4091 37.7851 34.9936 37.5296 34.4489C37.2742 33.9041 37.1464 33.2424 37.1464 32.4638C37.1464 31.6759 37.2757 31.0111 37.5342 30.4695C37.7958 29.9247 38.1482 29.5139 38.5914 29.2369C39.0346 28.9568 39.5285 28.8168 40.0733 28.8168C40.4888 28.8168 40.8304 28.8876 41.0981 29.0291C41.3659 29.1676 41.5783 29.3354 41.7352 29.5323C41.8922 29.7262 42.0137 29.9093 42.0999 30.0817H42.2015V28.9091H43.8449V38.6591H42.1692ZM40.5349 34.7536C40.8889 34.7536 41.1905 34.6582 41.4398 34.4673C41.6891 34.2735 41.8783 34.0042 42.0076 33.6595C42.1369 33.3148 42.2015 32.9131 42.2015 32.4546C42.2015 31.996 42.1369 31.5974 42.0076 31.2589C41.8814 30.9204 41.6937 30.6572 41.4444 30.4695C41.1982 30.2817 40.895 30.1879 40.5349 30.1879C40.1625 30.1879 39.8517 30.2848 39.6024 30.4787C39.3531 30.6726 39.1654 30.9404 39.0392 31.282C38.913 31.6236 38.8499 32.0145 38.8499 32.4546C38.8499 32.8977 38.913 33.2932 39.0392 33.641C39.1685 33.9857 39.3577 34.2581 39.607 34.4581C39.8594 34.6551 40.1687 34.7536 40.5349 34.7536Z"
        fill="currentColor"
      ></path>
      <path
        d="M50.0818 33.0178V28.9091H51.753V36H50.1326V34.7397H50.0587C49.8987 35.1367 49.6356 35.4614 49.2693 35.7138C48.9061 35.9662 48.4583 36.0923 47.9259 36.0923C47.4612 36.0923 47.0503 35.9892 46.6933 35.783C46.3394 35.5738 46.0624 35.2706 45.8623 34.8736C45.6623 34.4735 45.5623 33.9903 45.5623 33.424V28.9091H47.2334V33.1655C47.2334 33.6148 47.3565 33.9718 47.6028 34.2365C47.849 34.5012 48.1721 34.6335 48.5722 34.6335C48.8184 34.6335 49.0569 34.5735 49.2878 34.4535C49.5186 34.3335 49.7079 34.155 49.8556 33.918C50.0064 33.6779 50.0818 33.3779 50.0818 33.0178Z"
        fill="currentColor"
      ></path>
      <path
        d="M53.4715 36V28.9091H55.1426V36H53.4715ZM54.3117 27.9027C54.047 27.9027 53.8192 27.815 53.6284 27.6396C53.4376 27.4611 53.3422 27.2472 53.3422 26.9979C53.3422 26.7455 53.4376 26.5316 53.6284 26.3562C53.8192 26.1777 54.047 26.0884 54.3117 26.0884C54.5794 26.0884 54.8072 26.1777 54.9949 26.3562C55.1857 26.5316 55.2811 26.7455 55.2811 26.9979C55.2811 27.2472 55.1857 27.4611 54.9949 27.6396C54.8072 27.815 54.5794 27.9027 54.3117 27.9027Z"
        fill="currentColor"
      ></path>
      <path
        d="M59.9541 36.1385C59.2463 36.1385 58.6384 35.9831 58.1306 35.6722C57.6259 35.3614 57.2366 34.9321 56.9627 34.3842C56.6918 33.8334 56.5564 33.1994 56.5564 32.4823C56.5564 31.7621 56.6949 31.1266 56.9719 30.5757C57.2489 30.0217 57.6398 29.5908 58.1445 29.283C58.6523 28.9722 59.2524 28.8168 59.9449 28.8168C60.5204 28.8168 61.0298 28.923 61.473 29.1353C61.9192 29.3446 62.2747 29.6416 62.5394 30.0263C62.804 30.4079 62.9549 30.8542 62.9918 31.3651H61.3945C61.3299 31.0235 61.176 30.7388 60.9328 30.511C60.6928 30.2802 60.3712 30.1648 59.968 30.1648C59.6264 30.1648 59.3263 30.2571 59.0678 30.4418C58.8093 30.6234 58.6077 30.885 58.463 31.2266C58.3215 31.5682 58.2507 31.9775 58.2507 32.4546C58.2507 32.9378 58.3215 33.3532 58.463 33.701C58.6046 34.0457 58.8031 34.3119 59.0585 34.4997C59.3171 34.6843 59.6202 34.7767 59.968 34.7767C60.2142 34.7767 60.4343 34.7305 60.6282 34.6382C60.8251 34.5427 60.9898 34.4058 61.1221 34.2273C61.2545 34.0488 61.3452 33.8318 61.3945 33.5764H62.9918C62.9518 34.078 62.804 34.5227 62.5486 34.9105C62.2932 35.2952 61.9454 35.5968 61.5053 35.8154C61.0652 36.0308 60.5481 36.1385 59.9541 36.1385Z"
        fill="currentColor"
      ></path>
      <path
        d="M65.8875 33.7749L65.8829 31.7575H66.1506L68.6989 28.9091H70.6517L67.5171 32.3992H67.1709L65.8875 33.7749ZM64.364 36V26.5455H66.0352V36H64.364ZM68.8143 36L66.5061 32.7731L67.6325 31.5959L70.8133 36H68.8143Z"
        fill="currentColor"
      ></path>
      <path
        d="M56.0475 46.9091V48.2017H51.8557V46.9091H56.0475ZM52.9036 54V46.2397C52.9036 45.7627 53.0021 45.3657 53.1991 45.0487C53.3991 44.7317 53.6669 44.4947 54.0023 44.3377C54.3378 44.1808 54.7102 44.1023 55.1195 44.1023C55.4088 44.1023 55.6658 44.1254 55.8905 44.1715C56.1152 44.2177 56.2814 44.2592 56.3891 44.2962L56.0567 45.5888C55.9859 45.5673 55.8966 45.5457 55.7889 45.5242C55.6812 45.4995 55.5612 45.4872 55.4288 45.4872C55.118 45.4872 54.8979 45.5626 54.7687 45.7134C54.6425 45.8612 54.5794 46.0735 54.5794 46.3505V54H52.9036Z"
        fill="currentColor"
      ></path>
      <path
        d="M60.1827 54.1385C59.4902 54.1385 58.89 53.9862 58.3822 53.6815C57.8744 53.3768 57.4805 52.9505 57.2004 52.4027C56.9234 51.8549 56.7849 51.2147 56.7849 50.4823C56.7849 49.7498 56.9234 49.1081 57.2004 48.5572C57.4805 48.0063 57.8744 47.5785 58.3822 47.2738C58.89 46.9691 59.4902 46.8168 60.1827 46.8168C60.8751 46.8168 61.4753 46.9691 61.9831 47.2738C62.4909 47.5785 62.8833 48.0063 63.1603 48.5572C63.4404 49.1081 63.5804 49.7498 63.5804 50.4823C63.5804 51.2147 63.4404 51.8549 63.1603 52.4027C62.8833 52.9505 62.4909 53.3768 61.9831 53.6815C61.4753 53.9862 60.8751 54.1385 60.1827 54.1385ZM60.1919 52.7997C60.5674 52.7997 60.8813 52.6966 61.1337 52.4904C61.386 52.2811 61.5738 52.0011 61.6969 51.6502C61.823 51.2994 61.8861 50.9085 61.8861 50.4776C61.8861 50.0437 61.823 49.6513 61.6969 49.3004C61.5738 48.9465 61.386 48.6649 61.1337 48.4556C60.8813 48.2463 60.5674 48.1417 60.1919 48.1417C59.8072 48.1417 59.4871 48.2463 59.2317 48.4556C58.9793 48.6649 58.79 48.9465 58.6638 49.3004C58.5407 49.6513 58.4792 50.0437 58.4792 50.4776C58.4792 50.9085 58.5407 51.2994 58.6638 51.6502C58.79 52.0011 58.9793 52.2811 59.2317 52.4904C59.4871 52.6966 59.8072 52.7997 60.1919 52.7997Z"
        fill="currentColor"
      ></path>
      <path
        d="M66.0987 46.9091L67.5298 49.5266L68.984 46.9091H70.7521L68.6147 50.4546L70.789 54H69.0301L67.5298 51.4471L66.0433 54H64.2705L66.4311 50.4546L64.3259 46.9091H66.0987Z"
        fill="currentColor"
      ></path>
      <path
        d="M11.3853 50.4546C11.3853 50.9131 11.45 51.3148 11.5792 51.6595C11.7116 52.0042 11.9008 52.2735 12.1471 52.4673C12.3963 52.6582 12.698 52.7536 13.0519 52.7536C13.4212 52.7536 13.7305 52.6551 13.9798 52.4581C14.2291 52.2581 14.4168 51.9857 14.543 51.641C14.6723 51.2932 14.7369 50.8977 14.7369 50.4546C14.7369 50.0145 14.6738 49.6236 14.5476 49.282C14.4214 48.9404 14.2337 48.6726 13.9844 48.4787C13.7351 48.2848 13.4243 48.1879 13.0519 48.1879C12.6949 48.1879 12.3917 48.2817 12.1424 48.4695C11.8932 48.6572 11.7039 48.9204 11.5746 49.2589C11.4484 49.5974 11.3853 49.996 11.3853 50.4546Z"
        fill="currentColor"
      ></path>
      <path
        d="M25.8257 52.7997C26.2012 52.7997 26.5151 52.6966 26.7674 52.4904C27.0198 52.2811 27.2075 52.0011 27.3307 51.6502C27.4568 51.2994 27.5199 50.9085 27.5199 50.4776C27.5199 50.0437 27.4568 49.6513 27.3307 49.3004C27.2075 48.9465 27.0198 48.6649 26.7674 48.4556C26.5151 48.2463 26.2012 48.1417 25.8257 48.1417C25.441 48.1417 25.1209 48.2463 24.8655 48.4556C24.6131 48.6649 24.4238 48.9465 24.2976 49.3004C24.1745 49.6513 24.113 50.0437 24.113 50.4776C24.113 50.9085 24.1745 51.2994 24.2976 51.6502C24.4238 52.0011 24.6131 52.2811 24.8655 52.4904C25.1209 52.6966 25.441 52.7997 25.8257 52.7997Z"
        fill="currentColor"
      ></path>
      <path
        fill-rule="evenodd"
        clip-rule="evenodd"
        d="M9 42C7.89543 42 7 42.8954 7 44V55C7 56.1046 7.89543 57 9 57H48C49.1046 57 50 56.1046 50 55V44C50 42.8954 49.1046 42 48 42H9ZM9.74649 54V44.5455H11.4177V48.0817H11.4869C11.5731 47.9093 11.6946 47.7262 11.8516 47.5323C12.0086 47.3354 12.2209 47.1676 12.4887 47.0291C12.7564 46.8876 13.0981 46.8168 13.5135 46.8168C14.0614 46.8168 14.5553 46.9568 14.9954 47.2369C15.4386 47.5139 15.7895 47.9247 16.048 48.4695C16.3096 49.0111 16.4404 49.6759 16.4404 50.4638C16.4404 51.2424 16.3127 51.9041 16.0572 52.4489C15.8018 52.9936 15.454 53.4091 15.0139 53.6953C14.5738 53.9816 14.0752 54.1247 13.5182 54.1247C13.1119 54.1247 12.7749 54.057 12.5071 53.9215C12.2394 53.7861 12.024 53.623 11.8608 53.4322C11.7008 53.2383 11.5762 53.0552 11.4869 52.8828H11.39V54H9.74649ZM17.8611 46.9091V54H19.5323V49.8313C19.5323 49.5297 19.6015 49.2635 19.74 49.0327C19.8785 48.8019 20.0678 48.6218 20.3078 48.4926C20.551 48.3602 20.8249 48.2941 21.1296 48.2941C21.2711 48.2941 21.4173 48.3048 21.5681 48.3264C21.722 48.3448 21.8344 48.3664 21.9051 48.391V46.8537C21.8282 46.8383 21.7313 46.8275 21.6143 46.8214C21.5004 46.8122 21.3973 46.8075 21.305 46.8075C20.8987 46.8075 20.5371 46.9199 20.2201 47.1445C19.9062 47.3661 19.6846 47.6816 19.5554 48.0909H19.4815V46.9091H17.8611ZM25.8165 54.1385C25.124 54.1385 24.5238 53.9862 24.016 53.6815C23.5082 53.3768 23.1143 52.9505 22.8342 52.4027C22.5572 51.8549 22.4187 51.2147 22.4187 50.4823C22.4187 49.7498 22.5572 49.1081 22.8342 48.5572C23.1143 48.0063 23.5082 47.5785 24.016 47.2738C24.5238 46.9691 25.124 46.8168 25.8165 46.8168C26.5089 46.8168 27.1091 46.9691 27.6169 47.2738C28.1247 47.5785 28.5171 48.0063 28.7941 48.5572C29.0741 49.1081 29.2142 49.7498 29.2142 50.4823C29.2142 51.2147 29.0741 51.8549 28.7941 52.4027C28.5171 52.9505 28.1247 53.3768 27.6169 53.6815C27.1091 53.9862 26.5089 54.1385 25.8165 54.1385ZM29.8893 46.9091L31.8929 54H33.6379L34.9675 49.2081H35.0644L36.394 54H38.1344L40.1425 46.9091H38.4344L37.2065 51.8672H37.1372L35.8631 46.9091H34.178L32.9039 51.8949H32.8393L31.5928 46.9091H29.8893ZM42.9805 49.8452V54H41.3093V46.9091H42.9066V48.114H42.9897C43.1529 47.717 43.4129 47.4015 43.7699 47.1676C44.13 46.9337 44.5747 46.8168 45.1041 46.8168C45.5934 46.8168 46.0197 46.9214 46.3829 47.1307C46.7491 47.34 47.0322 47.6431 47.2323 48.0401C47.4354 48.4372 47.5354 48.9188 47.5324 49.4851V54H45.8612V49.7436C45.8612 49.2697 45.7381 48.8988 45.4919 48.6311C45.2487 48.3633 44.9117 48.2294 44.4809 48.2294C44.1885 48.2294 43.9284 48.2941 43.7007 48.4233C43.476 48.5495 43.299 48.7326 43.1698 48.9727C43.0436 49.2127 42.9805 49.5036 42.9805 49.8452Z"
        fill="currentColor"
      ></path>
    </svg>