<svg width="80" height="80" viewBox="0 0 80 80" fill="none" xmlns="http://www.w3.org/2000/svg"><path d="M43.3 32.3C43.3 35.1 45.3 36.7 47.7 36.7H50.6244C51.2183 36.7 51.7 36.2401 51.7 35.6709C51.7 35.1017 51.2183 34.6419 50.6244 34.6419C49.6923 34.6419 49.278 33.7813 49.5488 33.0983C50.5 30.7 48.9 29.1 46.5 29.1L43.3 32.3Z" fill="currentColor"></path><path fill-rule="evenodd" clip-rule="evenodd" d="M45.7 28.3L37.2892 19.8987C36.4057 19.0161 34.9736 19.0177 34.0921 19.9023C33.2123 20.7851 33.2136 22.2136 34.0948 23.0949L42.5 31.5L45.7 28.3ZM44.0024 28.3005L36.4412 20.7477C36.0269 20.3338 35.3554 20.3346 34.9421 20.7494C34.5296 21.1633 34.5301 21.8331 34.9434 22.2463L42.5 29.8029L44.0024 28.3005Z" fill="currentColor"></path><g opacity="0.35"><path d="M23.467 52.5V47.4019H23.3861C23.2617 47.6665 23.0855 47.929 22.8575 48.1895C22.6336 48.4459 22.3413 48.6588 21.9806 48.8283C21.624 48.9979 21.1887 49.0826 20.6746 49.0826C19.949 49.0826 19.2919 48.8966 18.7031 48.5244C18.1185 48.1482 17.6541 47.5962 17.31 46.8685C16.97 46.1366 16.8 45.2394 16.8 44.1768C16.8 43.0852 16.9763 42.1776 17.3287 41.454C17.6811 40.7263 18.1496 40.1826 18.7342 39.8229C19.3229 39.459 19.9677 39.2771 20.6684 39.2771C21.2032 39.2771 21.6489 39.3681 22.0055 39.55C22.3662 39.7278 22.6564 39.9511 22.8762 40.2198C23.1 40.4844 23.27 40.7449 23.3861 41.0013H23.4981V39.4011H26.1101V52.5H23.467ZM21.5142 46.9801C21.9412 46.9801 22.3019 46.8643 22.5963 46.6328C22.8948 46.3971 23.1228 46.0684 23.2804 45.6467C23.4421 45.2249 23.5229 44.7308 23.5229 44.1644C23.5229 43.5979 23.4442 43.1059 23.2866 42.6883C23.1291 42.2706 22.901 41.9481 22.6025 41.7207C22.304 41.4933 21.9412 41.3796 21.5142 41.3796C21.0788 41.3796 20.7119 41.4974 20.4134 41.7331C20.1149 41.9688 19.8889 42.2955 19.7355 42.7131C19.5821 43.1307 19.5054 43.6144 19.5054 44.1644C19.5054 44.7184 19.5821 45.2084 19.7355 45.6343C19.893 46.056 20.119 46.3868 20.4134 46.6266C20.7119 46.8623 21.0788 46.9801 21.5142 46.9801Z" fill="currentColor"></path><path d="M34.3629 44.8714V39.4011H37.0123V48.9276H34.4686V47.1972H34.3691C34.1535 47.7554 33.7949 48.204 33.2932 48.543C32.7957 48.8821 32.1883 49.0516 31.471 49.0516C30.8325 49.0516 30.2707 48.9069 29.7856 48.6175C29.3005 48.328 28.9212 47.9166 28.6475 47.3833C28.378 46.8499 28.2412 46.2111 28.2371 45.4668V39.4011H30.8864V44.9954C30.8906 45.5578 31.0419 46.0022 31.3404 46.3289C31.6389 46.6555 32.039 46.8189 32.5407 46.8189C32.86 46.8189 33.1585 46.7465 33.4363 46.6018C33.714 46.4529 33.9379 46.2338 34.1079 45.9444C34.2821 45.6549 34.3671 45.2973 34.3629 44.8714Z" fill="currentColor"></path><path d="M39.1314 48.9276V39.4011H41.7808V48.9276H39.1314ZM40.4623 38.1731C40.0685 38.1731 39.7305 38.0429 39.4486 37.7824C39.1708 37.5178 39.0319 37.2014 39.0319 36.8335C39.0319 36.4696 39.1708 36.1574 39.4486 35.8969C39.7305 35.6323 40.0685 35.5 40.4623 35.5C40.8562 35.5 41.192 35.6323 41.4698 35.8969C41.7518 36.1574 41.8927 36.4696 41.8927 36.8335C41.8927 37.2014 41.7518 37.5178 41.4698 37.7824C41.192 38.0429 40.8562 38.1731 40.4623 38.1731Z" fill="currentColor"></path><path d="M48.2192 49.1136C47.2407 49.1136 46.399 48.9069 45.6942 48.4934C44.9935 48.0758 44.4545 47.497 44.0772 46.7568C43.7041 46.0167 43.5175 45.165 43.5175 44.2016C43.5175 43.2258 43.7061 42.3699 44.0834 41.6339C44.4649 40.8938 45.0059 40.317 45.7066 39.9035C46.4073 39.4859 47.2407 39.2771 48.2067 39.2771C49.0401 39.2771 49.7698 39.428 50.3959 39.7298C51.0219 40.0317 51.5174 40.4555 51.8822 41.0013C52.2471 41.5471 52.4482 42.1879 52.4855 42.9239H49.9854C49.9149 42.4484 49.7283 42.066 49.4257 41.7765C49.1272 41.483 48.7354 41.3362 48.2503 41.3362C47.8398 41.3362 47.4812 41.4478 47.1743 41.6711C46.8717 41.8902 46.6354 42.2107 46.4654 42.6324C46.2954 43.0542 46.2104 43.5648 46.2104 44.1644C46.2104 44.7722 46.2933 45.289 46.4591 45.7149C46.6291 46.1408 46.8675 46.4653 47.1743 46.6886C47.4812 46.9119 47.8398 47.0235 48.2503 47.0235C48.5529 47.0235 48.8245 46.9615 49.065 46.8375C49.3096 46.7134 49.5107 46.5336 49.6682 46.2979C49.8299 46.0581 49.9356 45.7707 49.9854 45.4358H52.4855C52.444 46.1635 52.245 46.8044 51.8885 47.3584C51.536 47.9084 51.0489 48.3384 50.427 48.6485C49.805 48.9586 49.0691 49.1136 48.2192 49.1136Z" fill="currentColor"></path><path d="M56.5824 46.1862L56.5886 43.017H56.9742L60.034 39.4011H63.0751L58.9643 44.1892H58.3362L56.5824 46.1862ZM54.1818 48.9276V36.2256H56.8311V48.9276H54.1818ZM60.1521 48.9276L57.3411 44.7784L59.1073 42.9115L63.2555 48.9276H60.1521Z" fill="currentColor"></path></g><path d="M21.6411 41.3831C21.9205 41.3985 22.1706 41.4657 22.3915 41.5846L23.3855 41C23.2694 40.744 23.0997 40.484 22.8762 40.2198C22.6564 39.9511 22.3662 39.7278 22.0055 39.55C21.6489 39.3681 21.2032 39.2771 20.6684 39.2771C20.5578 39.2771 20.4486 39.2816 20.3408 39.2907L21.6411 41.3831Z" fill="currentColor"></path><path d="M33.032 48.7002C33.1222 48.6526 33.2093 48.6003 33.2932 48.543C33.7949 48.204 34.1535 47.7554 34.3691 47.1972H34.4686V48.9276H37.0123V39.4011H34.3629V44.8714C34.3671 45.2973 34.2821 45.6549 34.1079 45.9444C33.9379 46.2338 33.714 46.4529 33.4363 46.6018C33.1585 46.7465 32.86 46.8189 32.5407 46.8189C32.039 46.8189 31.6389 46.6555 31.3404 46.3289C31.0419 46.0022 30.8906 45.5578 30.8864 44.9954V39.4011H28.2371V44.3571L33.032 48.7002Z" fill="currentColor"></path><path d="M26.1101 42.4306V39.4011H23.4981V40.9338L24.0798 40.5916L26.1101 42.4306Z" fill="currentColor"></path><path d="M41.7808 39.4011H39.1314V48.9276H41.7808V39.4011Z" fill="currentColor"></path><path d="M39.4486 37.7824C39.7305 38.0429 40.0685 38.1731 40.4623 38.1731C40.8562 38.1731 41.192 38.0429 41.4698 37.7824C41.7518 37.5178 41.8927 37.2014 41.8927 36.8335C41.8927 36.4696 41.7518 36.1574 41.4698 35.8969C41.192 35.6323 40.8562 35.5 40.4623 35.5C40.0685 35.5 39.7305 35.6323 39.4486 35.8969C39.1708 36.1574 39.0319 36.4696 39.0319 36.8335C39.0319 37.2014 39.1708 37.5178 39.4486 37.7824Z" fill="currentColor"></path><path d="M48.2192 49.1136C47.2407 49.1136 46.399 48.9069 45.6942 48.4934C44.9935 48.0758 44.4545 47.497 44.0772 46.7568C43.7041 46.0167 43.5175 45.165 43.5175 44.2016C43.5175 43.2258 43.7061 42.3699 44.0834 41.6339C44.4649 40.8938 45.0059 40.317 45.7066 39.9035C46.4073 39.4859 47.2407 39.2771 48.2067 39.2771C49.0401 39.2771 49.7698 39.428 50.3959 39.7298C51.0219 40.0317 51.5174 40.4555 51.8822 41.0013C52.2471 41.5471 52.4482 42.1879 52.4855 42.9239H49.9854C49.9149 42.4484 49.7283 42.066 49.4257 41.7765C49.1272 41.483 48.7353 41.3362 48.2503 41.3362C47.8398 41.3362 47.4812 41.4478 47.1743 41.6711C46.8717 41.8902 46.6354 42.2107 46.4654 42.6324C46.2954 43.0542 46.2104 43.5648 46.2104 44.1644C46.2104 44.7722 46.2933 45.289 46.4591 45.7149C46.6291 46.1408 46.8675 46.4653 47.1743 46.6886C47.4812 46.9119 47.8398 47.0235 48.2503 47.0235C48.5529 47.0235 48.8245 46.9615 49.065 46.8375C49.3096 46.7134 49.5107 46.5336 49.6682 46.2979C49.8299 46.0581 49.9356 45.7707 49.9854 45.4358H52.4855C52.444 46.1635 52.245 46.8044 51.8885 47.3584C51.536 47.9084 51.0489 48.3384 50.427 48.6485C49.805 48.9586 49.0691 49.1136 48.2192 49.1136Z" fill="currentColor"></path><path d="M56.8311 45.903V48.9276H54.1818V36.2256H56.8311V43.017H56.9742L60.034 39.4011H63.0751L59.5322 43.5277L63.2555 48.9276H60.1521L57.5491 45.0854L56.8311 45.903Z" fill="currentColor"></path></svg>