<svg width="80" height="80" viewBox="0 0 80 80" fill="none" xmlns="http://www.w3.org/2000/svg"><path id="the" d="M25.537,42.362C25.542,42.781 25.622,43.143 25.778,43.447C25.938,43.758 26.162,43.997 26.45,44.164C26.738,44.328 27.076,44.41 27.462,44.41C27.72,44.41 27.955,44.374 28.164,44.301C28.374,44.226 28.555,44.116 28.71,43.973C28.864,43.828 28.98,43.65 29.059,43.438L30.718,43.624C30.614,44.062 30.414,44.446 30.119,44.773C29.828,45.097 29.455,45.35 28.999,45.529C28.544,45.706 28.023,45.795 27.437,45.795C26.681,45.795 26.028,45.638 25.477,45.323C24.93,45.006 24.51,44.557 24.216,43.977C23.921,43.395 23.773,42.709 23.773,41.919C23.773,41.144 23.921,40.463 24.216,39.877C24.514,39.287 24.93,38.828 25.462,38.501C25.997,38.17 26.623,38.005 27.344,38.005C27.81,38.005 28.248,38.081 28.661,38.231C29.076,38.378 29.443,38.607 29.761,38.918C30.081,39.23 30.333,39.625 30.517,40.107C30.701,40.585 30.792,41.155 30.792,41.816L30.792,42.362L25.537,42.362ZM6.121,37.115L6.121,35.588L14.146,35.588L14.146,37.115L11.037,37.115L11.037,45.647L9.23,45.647L9.23,37.115L6.121,37.115ZM17.393,41.227L17.393,45.647L15.614,45.647L15.614,35.588L17.354,35.588L17.354,39.385L17.442,39.385C17.619,38.959 17.892,38.624 18.263,38.378C18.636,38.129 19.111,38.005 19.686,38.005C20.211,38.005 20.667,38.115 21.057,38.334C21.447,38.553 21.748,38.874 21.961,39.297C22.177,39.719 22.286,40.235 22.286,40.844L22.286,45.647L20.507,45.647L20.507,41.119C20.507,40.612 20.376,40.217 20.114,39.935C19.855,39.65 19.491,39.507 19.023,39.507C18.709,39.507 18.427,39.576 18.179,39.714C17.933,39.849 17.74,40.044 17.599,40.299C17.461,40.554 17.393,40.864 17.393,41.227ZM25.548,41.163L29.087,41.163C29.084,40.822 29.011,40.519 28.867,40.254C28.723,39.986 28.521,39.774 28.263,39.621C28.008,39.467 27.71,39.39 27.369,39.39C27.005,39.39 26.686,39.478 26.411,39.655C26.136,39.829 25.921,40.058 25.768,40.343C25.617,40.624 25.551,40.826 25.548,41.163Z" fill="currentColor"></path><path id="quick" d="M41.153,48.525L41.153,44.507L41.08,44.507C40.988,44.69 40.856,44.885 40.682,45.091C40.508,45.294 40.279,45.468 39.994,45.612C39.709,45.756 39.351,45.828 38.919,45.828C38.326,45.828 37.795,45.676 37.327,45.371C36.859,45.067 36.489,44.625 36.217,44.045C35.945,43.465 35.809,42.761 35.809,41.933C35.809,41.095 35.947,40.387 36.222,39.811C36.5,39.231 36.875,38.794 37.347,38.5C37.818,38.202 38.344,38.053 38.923,38.053C39.366,38.053 39.729,38.128 40.014,38.279C40.299,38.426 40.525,38.604 40.692,38.814C40.859,39.02 40.988,39.215 41.08,39.398L41.188,39.398L41.188,38.151L42.936,38.151L42.936,48.525L41.153,48.525ZM60.076,45.843C59.323,45.843 58.676,45.677 58.136,45.347C57.599,45.016 57.185,44.559 56.893,43.976C56.605,43.39 56.461,42.716 56.461,41.953C56.461,41.186 56.608,40.51 56.903,39.924C57.198,39.335 57.614,38.876 58.151,38.549C58.691,38.218 59.33,38.053 60.066,38.053C60.679,38.053 61.221,38.166 61.692,38.392C62.167,38.614 62.545,38.93 62.827,39.34C63.108,39.746 63.269,40.22 63.308,40.764L61.609,40.764C61.54,40.4 61.376,40.097 61.118,39.855C60.862,39.61 60.52,39.487 60.091,39.487C59.727,39.487 59.408,39.585 59.133,39.782C58.858,39.975 58.644,40.253 58.49,40.617C58.339,40.98 58.264,41.416 58.264,41.923C58.264,42.437 58.339,42.879 58.49,43.249C58.64,43.616 58.852,43.899 59.123,44.099C59.398,44.295 59.721,44.394 60.091,44.394C60.353,44.394 60.587,44.345 60.793,44.246C61.003,44.145 61.178,43.999 61.319,43.809C61.46,43.619 61.556,43.388 61.609,43.117L63.308,43.117C63.266,43.65 63.108,44.124 62.837,44.536C62.565,44.946 62.195,45.266 61.727,45.499C61.258,45.728 60.708,45.843 60.076,45.843ZM49.572,42.522L49.572,38.151L51.35,38.151L51.35,45.695L49.626,45.695L49.626,44.354L49.548,44.354C49.377,44.777 49.097,45.122 48.708,45.391C48.321,45.659 47.845,45.794 47.279,45.794C46.784,45.794 46.347,45.684 45.967,45.465C45.59,45.242 45.296,44.919 45.083,44.497C44.87,44.071 44.764,43.557 44.764,42.955L44.764,38.151L46.542,38.151L46.542,42.68C46.542,43.158 46.673,43.537 46.935,43.819C47.197,44.101 47.54,44.242 47.966,44.242C48.228,44.242 48.482,44.178 48.727,44.05C48.973,43.922 49.174,43.732 49.332,43.48C49.492,43.225 49.572,42.906 49.572,42.522ZM53.179,45.695L53.179,38.151L54.957,38.151L54.957,45.695L53.179,45.695ZM66.546,41.181L66.669,41.181L69.38,38.151L71.458,38.151L68.533,41.407L71.63,45.695L69.503,45.695L67.193,42.466L66.546,43.159L66.546,45.695L64.768,45.695L64.768,35.636L66.546,35.636L66.546,41.181ZM39.415,44.369C39.791,44.369 40.112,44.268 40.377,44.065C40.643,43.858 40.844,43.572 40.981,43.205C41.119,42.838 41.188,42.411 41.188,41.923C41.188,41.435 41.119,41.011 40.981,40.651C40.847,40.291 40.648,40.011 40.382,39.811C40.12,39.611 39.798,39.511 39.415,39.511C39.018,39.511 38.688,39.615 38.423,39.821C38.157,40.027 37.958,40.312 37.823,40.676C37.689,41.039 37.622,41.455 37.622,41.923C37.622,42.395 37.689,42.815 37.823,43.185C37.961,43.552 38.162,43.842 38.427,44.055C38.696,44.264 39.025,44.369 39.415,44.369ZM54.073,37.08C53.791,37.08 53.549,36.987 53.346,36.8C53.143,36.61 53.041,36.383 53.041,36.117C53.041,35.849 53.143,35.621 53.346,35.435C53.549,35.245 53.791,35.15 54.073,35.15C54.358,35.15 54.6,35.245 54.8,35.435C55.003,35.621 55.104,35.849 55.104,36.117C55.104,36.383 55.003,36.61 54.8,36.8C54.6,36.987 54.358,37.08 54.073,37.08Z" fill="currentColor"></path><path id="ripple1" d="M51.054,36.163L49.572,36.163C48.965,36.163 48.422,36.435 48.057,36.864C47.692,36.435 47.149,36.163 46.542,36.163C46.542,36.163 44.764,36.163 44.764,36.163C44.434,36.163 44.123,36.243 43.85,36.385C43.577,36.243 43.266,36.163 42.936,36.163C42.936,36.163 41.188,36.163 41.188,36.163C40.926,36.163 40.676,36.214 40.447,36.306C40.014,36.154 39.508,36.065 38.923,36.065C37.955,36.065 37.078,36.319 36.289,36.816C35.517,37.3 34.886,38.001 34.43,38.95C34.429,38.952 34.429,38.953 34.428,38.955C34.041,39.765 33.821,40.754 33.821,41.933C33.821,43.094 34.036,44.077 34.417,44.889C34.86,45.834 35.48,46.541 36.243,47.038C36.243,47.038 36.243,47.038 36.243,47.038C37.031,47.55 37.921,47.816 38.919,47.816C39.002,47.816 39.085,47.814 39.165,47.811C39.165,47.811 39.165,48.525 39.165,48.525C39.165,49.623 40.055,50.513 41.153,50.513C41.153,50.513 42.936,50.513 42.936,50.513C44.034,50.513 44.924,49.623 44.924,48.525L44.924,47.157L44.973,47.186C45.642,47.572 46.408,47.782 47.279,47.782C47.858,47.782 48.382,47.692 48.854,47.527C49.09,47.628 49.352,47.683 49.626,47.683C49.626,47.683 51.35,47.683 51.35,47.683C51.68,47.683 51.991,47.603 52.265,47.461C52.538,47.603 52.849,47.683 53.179,47.683C53.179,47.683 54.957,47.683 54.957,47.683C55.673,47.683 56.301,47.304 56.651,46.736L57.098,47.042C57.929,47.551 58.918,47.831 60.076,47.831C61.044,47.831 61.883,47.636 62.601,47.284C62.604,47.283 62.607,47.281 62.611,47.28C62.823,47.174 63.023,47.058 63.21,46.93C63.574,47.389 64.137,47.683 64.768,47.683C64.768,47.683 66.546,47.683 66.546,47.683C67.133,47.683 67.661,47.429 68.025,47.024C68.399,47.441 68.936,47.683 69.503,47.683C69.503,47.683 71.63,47.683 71.63,47.683C72.376,47.683 73.06,47.265 73.4,46.6C73.74,45.936 73.679,45.137 73.242,44.531C73.242,44.531 71.079,41.538 71.079,41.538C71.608,40.952 72.937,39.479 72.937,39.479C73.461,38.895 73.593,38.058 73.274,37.341C72.954,36.624 72.243,36.163 71.458,36.163C71.458,36.163 69.38,36.163 69.38,36.163C69.084,36.163 68.796,36.229 68.534,36.352L68.534,35.636C68.534,34.538 67.644,33.648 66.546,33.648L64.768,33.648C63.67,33.648 62.78,34.538 62.78,35.636L62.78,36.714C62.703,36.673 62.625,36.634 62.546,36.596C61.825,36.252 61.001,36.065 60.066,36.065C58.929,36.065 57.949,36.342 57.114,36.852C57.069,36.88 57.025,36.908 56.981,36.936C57.055,36.677 57.092,36.404 57.092,36.117C57.092,35.28 56.786,34.567 56.158,33.983C55.583,33.441 54.89,33.162 54.073,33.162C53.268,33.162 52.576,33.436 51.995,33.976C51.361,34.561 51.053,35.277 51.053,36.117L51.054,36.163ZM68.637,37.5L68.644,37.492C68.831,37.283 69.099,37.163 69.38,37.163L71.458,37.163C71.848,37.163 72.201,37.392 72.36,37.748C72.519,38.105 72.454,38.521 72.193,38.811C72.193,38.811 70.018,41.244 70.018,41.244C69.91,41.417 69.918,41.637 70.037,41.802L72.431,45.117C72.648,45.418 72.678,45.815 72.51,46.145C72.341,46.476 72.001,46.683 71.63,46.683L69.503,46.683C69.184,46.683 68.885,46.53 68.7,46.27C68.7,46.27 68.38,45.824 68.38,45.824C68.269,45.669 68.079,45.59 67.89,45.622C67.702,45.654 67.548,45.791 67.494,45.975C67.374,46.384 66.995,46.683 66.546,46.683L64.768,46.683C64.336,46.683 63.968,46.405 63.834,46.018C63.78,45.86 63.65,45.74 63.489,45.698C63.327,45.655 63.155,45.696 63.03,45.807C62.777,46.031 62.489,46.223 62.166,46.384C62.164,46.385 62.163,46.385 62.161,46.386C61.569,46.676 60.875,46.831 60.076,46.831C59.122,46.831 58.305,46.608 57.62,46.189C57.619,46.189 57.619,46.188 57.618,46.188C57.312,45.999 57.036,45.78 56.792,45.529C56.657,45.391 56.456,45.342 56.273,45.404C56.091,45.465 55.96,45.626 55.937,45.817C55.878,46.305 55.461,46.683 54.957,46.683L53.179,46.683C52.95,46.683 52.74,46.606 52.573,46.475C52.392,46.334 52.137,46.334 51.956,46.475C51.789,46.606 51.579,46.683 51.35,46.683L49.626,46.683C49.446,46.683 49.277,46.635 49.131,46.55C48.996,46.471 48.832,46.46 48.687,46.52C48.274,46.692 47.805,46.782 47.279,46.782C46.597,46.782 45.996,46.622 45.473,46.32C45.47,46.318 45.467,46.317 45.464,46.315C45.213,46.167 44.987,45.988 44.786,45.778C44.645,45.631 44.428,45.583 44.238,45.659C44.049,45.735 43.924,45.919 43.924,46.124L43.924,48.525C43.924,49.07 43.482,49.513 42.936,49.513L41.153,49.513C40.608,49.513 40.165,49.07 40.165,48.525C40.165,48.525 40.165,47.258 40.165,47.258C40.165,47.111 40.101,46.971 39.989,46.876C39.877,46.781 39.729,46.74 39.584,46.764C39.378,46.798 39.156,46.816 38.919,46.816C38.125,46.816 37.416,46.607 36.789,46.2C36.788,46.199 36.788,46.199 36.788,46.199C36.173,45.799 35.68,45.226 35.323,44.464C34.996,43.769 34.821,42.927 34.821,41.933C34.821,40.925 35,40.078 35.33,39.385C35.331,39.385 35.331,39.384 35.331,39.383C35.698,38.62 36.2,38.052 36.821,37.663C36.821,37.663 36.821,37.663 36.822,37.663C37.451,37.266 38.151,37.065 38.923,37.065C39.453,37.065 39.902,37.153 40.273,37.31C40.415,37.369 40.576,37.361 40.71,37.286C40.852,37.207 41.015,37.163 41.188,37.163L42.936,37.163C43.165,37.163 43.375,37.24 43.542,37.371C43.723,37.512 43.977,37.512 44.158,37.371C44.325,37.24 44.535,37.163 44.764,37.163L46.542,37.163C47.087,37.163 47.53,37.605 47.53,38.151C47.53,38.427 47.754,38.651 48.03,38.651L48.084,38.651C48.36,38.651 48.584,38.427 48.584,38.151C48.584,37.605 49.027,37.163 49.572,37.163L51.35,37.163C51.41,37.163 51.468,37.168 51.525,37.179C51.691,37.209 51.861,37.155 51.978,37.033C52.095,36.91 52.142,36.738 52.103,36.573C52.069,36.428 52.053,36.276 52.053,36.117C52.053,35.565 52.257,35.095 52.674,34.71C52.674,34.71 52.675,34.709 52.675,34.709C53.066,34.345 53.531,34.162 54.073,34.162C54.622,34.162 55.088,34.348 55.473,34.712C55.474,34.713 55.475,34.714 55.476,34.715C55.89,35.098 56.092,35.567 56.092,36.117C56.092,36.486 56.003,36.821 55.813,37.119C55.711,37.279 55.708,37.483 55.806,37.645C55.88,37.77 55.928,37.913 55.941,38.066C55.957,38.261 56.086,38.429 56.271,38.496C56.455,38.562 56.662,38.514 56.798,38.373C57.046,38.117 57.326,37.895 57.635,37.706C57.636,37.706 57.636,37.706 57.636,37.705C58.322,37.286 59.131,37.065 60.066,37.065C60.838,37.065 61.52,37.214 62.115,37.499C62.116,37.499 62.117,37.499 62.118,37.5C62.43,37.647 62.711,37.824 62.96,38.032C63.109,38.156 63.316,38.183 63.492,38.101C63.668,38.019 63.78,37.842 63.78,37.648L63.78,35.636C63.78,35.09 64.222,34.648 64.768,34.648C64.768,34.648 66.546,34.648 66.546,34.648C67.092,34.648 67.534,35.09 67.534,35.636C67.534,35.636 67.534,37.424 67.534,37.424C67.534,37.7 67.758,37.924 68.034,37.924C68.034,37.924 68.233,37.951 68.412,37.751C68.444,37.716 68.637,37.499 68.637,37.499L68.637,37.5Z" fill="currentColor" fill-opacity="0.45"></path><path id="ripple2" d="M49.39,34.091C48.921,34.112 48.471,34.212 48.056,34.379C47.589,34.191 47.078,34.087 46.542,34.087L44.764,34.087C44.449,34.087 44.142,34.123 43.848,34.191C43.558,34.123 43.251,34.087 42.936,34.087L41.188,34.087C40.938,34.087 40.693,34.11 40.455,34.153C39.994,34.048 39.483,33.989 38.923,33.989C37.548,33.989 36.304,34.353 35.184,35.059C34.099,35.739 33.2,36.716 32.559,38.052C32.557,38.055 32.556,38.058 32.555,38.06C32.051,39.115 31.746,40.399 31.746,41.933C31.746,43.442 32.043,44.715 32.538,45.77C33.16,47.097 34.039,48.081 35.111,48.778C35.111,48.778 35.112,48.778 35.112,48.778C35.778,49.211 36.495,49.522 37.264,49.704C37.768,51.373 39.319,52.588 41.153,52.588C41.153,52.588 42.936,52.588 42.936,52.588C44.72,52.588 46.235,51.439 46.782,49.841C46.945,49.852 47.11,49.857 47.279,49.857C47.84,49.857 48.365,49.797 48.856,49.685C49.103,49.734 49.362,49.759 49.626,49.759C49.626,49.759 51.35,49.759 51.35,49.759C51.665,49.759 51.972,49.723 52.266,49.655C52.557,49.723 52.864,49.759 53.179,49.759C53.179,49.759 54.957,49.759 54.957,49.759C55.657,49.759 56.317,49.582 56.892,49.27C57.825,49.679 58.883,49.907 60.076,49.907C61.181,49.907 62.16,49.711 63.023,49.366C63.551,49.618 64.143,49.759 64.768,49.759C64.768,49.759 66.546,49.759 66.546,49.759C67.069,49.759 67.568,49.661 68.027,49.481C68.49,49.663 68.99,49.759 69.503,49.759C69.503,49.759 71.63,49.759 71.63,49.759C73.156,49.759 74.553,48.904 75.248,47.546C75.943,46.187 75.818,44.553 74.924,43.316L73.746,41.685L74.481,40.866C75.553,39.673 75.823,37.961 75.169,36.496C74.516,35.031 73.062,34.087 71.458,34.087L70.304,34.087C69.695,32.611 68.242,31.572 66.546,31.572L64.768,31.572C63.09,31.572 61.649,32.59 61.029,34.042C60.719,34.007 60.398,33.989 60.066,33.989C59.61,33.989 59.173,34.023 58.754,34.088C58.49,33.496 58.1,32.954 57.575,32.466C56.61,31.559 55.447,31.086 54.073,31.086C52.72,31.086 51.558,31.547 50.582,32.455C50.051,32.947 49.656,33.493 49.39,34.091ZM49.731,35.087C49.942,35.087 50.131,34.954 50.202,34.754C50.408,34.173 50.761,33.652 51.261,33.189C51.262,33.189 51.262,33.189 51.262,33.188C52.048,32.457 52.984,32.086 54.073,32.086C55.178,32.086 56.114,32.465 56.891,33.195C56.891,33.196 56.892,33.197 56.893,33.197C57.406,33.674 57.762,34.213 57.965,34.814C58.046,35.055 58.294,35.197 58.543,35.144C59.022,35.042 59.529,34.989 60.066,34.989C60.489,34.989 60.893,35.022 61.278,35.085C61.525,35.126 61.765,34.978 61.838,34.738C62.221,33.484 63.388,32.572 64.768,32.572C64.768,32.572 66.546,32.572 66.546,32.572C67.924,32.572 69.09,33.482 69.475,34.734C69.54,34.944 69.733,35.087 69.953,35.087L71.458,35.087C72.667,35.087 73.764,35.798 74.256,36.903C74.749,38.007 74.546,39.298 73.737,40.198L72.733,41.316C72.733,41.316 72.471,41.586 72.471,41.586L72.7,41.943L74.114,43.902C74.787,44.834 74.882,46.066 74.358,47.09C73.834,48.115 72.78,48.759 71.63,48.759L69.503,48.759C69.059,48.759 68.627,48.663 68.234,48.483C68.102,48.423 67.95,48.423 67.818,48.484C67.431,48.661 67,48.759 66.546,48.759L64.768,48.759C64.231,48.759 63.725,48.621 63.286,48.378C63.15,48.302 62.986,48.294 62.843,48.357C62.043,48.709 61.124,48.907 60.076,48.907C58.943,48.907 57.948,48.676 57.081,48.257C56.925,48.181 56.741,48.192 56.595,48.285C56.122,48.585 55.559,48.759 54.957,48.759L53.179,48.759C52.907,48.759 52.644,48.724 52.393,48.657C52.309,48.635 52.22,48.635 52.136,48.657C51.886,48.724 51.622,48.759 51.35,48.759L49.626,48.759C49.396,48.759 49.172,48.734 48.956,48.686C48.881,48.669 48.802,48.67 48.727,48.688C48.279,48.799 47.797,48.857 47.279,48.857C47.004,48.857 46.737,48.84 46.479,48.807C46.223,48.773 45.983,48.941 45.927,49.194C45.622,50.564 44.399,51.588 42.936,51.588L41.153,51.588C39.684,51.588 38.456,50.554 38.158,49.173C38.116,48.976 37.96,48.824 37.761,48.787C37.003,48.645 36.302,48.359 35.657,47.94C35.657,47.94 35.656,47.94 35.656,47.939C34.733,47.339 33.979,46.489 33.443,45.346C33.003,44.407 32.746,43.275 32.746,41.933C32.746,40.57 33.01,39.428 33.457,38.491C33.458,38.489 33.459,38.487 33.46,38.485C34.012,37.335 34.782,36.491 35.716,35.906C35.716,35.906 35.717,35.905 35.717,35.905C36.677,35.3 37.744,34.989 38.923,34.989C39.44,34.989 39.908,35.047 40.329,35.15C40.402,35.168 40.478,35.169 40.551,35.153C40.757,35.11 40.97,35.087 41.188,35.087C41.188,35.087 42.936,35.087 42.936,35.087C43.208,35.087 43.471,35.122 43.722,35.189C43.806,35.211 43.894,35.211 43.978,35.189C44.229,35.122 44.492,35.087 44.764,35.087C44.764,35.087 46.542,35.087 46.542,35.087C47.007,35.087 47.449,35.191 47.844,35.377C47.979,35.44 48.135,35.44 48.27,35.377C48.665,35.191 49.107,35.087 49.572,35.087L49.731,35.087Z" fill="currentColor" fill-opacity="0.25"></path><path id="a" d="M56.393,61.123C56.393,61.564 56.036,61.921 55.595,61.921C55.155,61.921 54.797,61.564 54.797,61.123L54.797,56.134L53.434,57.224C53.09,57.5 52.588,57.444 52.312,57.1C52.037,56.756 52.093,56.253 52.437,55.978L55.097,53.85C55.388,53.617 55.802,53.617 56.094,53.85L58.754,55.978C59.098,56.253 59.154,56.756 58.878,57.1C58.603,57.444 58.101,57.5 57.757,57.224L56.393,56.134L56.393,61.123ZM57.757,24.591C58.101,24.315 58.603,24.371 58.878,24.715C59.154,25.059 59.098,25.562 58.754,25.837L56.094,27.965C55.802,28.198 55.388,28.198 55.097,27.965L52.437,25.837C52.093,25.562 52.037,25.059 52.312,24.715C52.588,24.371 53.09,24.315 53.434,24.591L54.797,25.681L54.797,20.692C54.797,20.251 55.155,19.894 55.595,19.894C56.036,19.894 56.393,20.251 56.393,20.692L56.393,25.681L57.757,24.591Z" fill="currentColor" fill-opacity="0.5"></path></svg>