<svg width="80" height="80" viewBox="0 0 80 80" fill="none" xmlns="http://www.w3.org/2000/svg"><path opacity="0.3" d="M9 53H71V55C71 56.1046 70.1046 57 69 57H11C9.89543 57 9 56.1046 9 55V53Z" fill="currentColor"></path><path opacity="0.5" d="M7 49H73V51C73 52.1046 72.1046 53 71 53H9C7.89543 53 7 52.1046 7 51V49Z" fill="currentColor"></path><path d="M11.0792 42.0572C10.95 41.7125 10.8853 41.3108 10.8853 40.8523C10.8853 40.3937 10.9484 39.9951 11.0746 39.6566C11.2039 39.3181 11.3932 39.0549 11.6424 38.8672C11.8917 38.6795 12.1949 38.5856 12.5519 38.5856C12.9243 38.5856 13.2351 38.6825 13.4844 38.8764C13.7337 39.0703 13.9214 39.3381 14.0476 39.6797C14.1738 40.0213 14.2369 40.4122 14.2369 40.8523C14.2369 41.2955 14.1723 41.6909 14.043 42.0387C13.9168 42.3834 13.7291 42.6558 13.4798 42.8558C13.2305 43.0528 12.9212 43.1513 12.5519 43.1513C12.198 43.1513 11.8963 43.0559 11.6471 42.8651C11.4008 42.6712 11.2116 42.4019 11.0792 42.0572Z" fill="currentColor"></path><path d="M25.3257 43.1974C25.7012 43.1974 26.0151 43.0943 26.2674 42.8881C26.5198 42.6789 26.7075 42.3988 26.8307 42.0479C26.9568 41.6971 27.0199 41.3062 27.0199 40.8754C27.0199 40.4414 26.9568 40.049 26.8307 39.6982C26.7075 39.3442 26.5198 39.0626 26.2674 38.8533C26.0151 38.6441 25.7012 38.5394 25.3257 38.5394C24.941 38.5394 24.6209 38.6441 24.3655 38.8533C24.1131 39.0626 23.9238 39.3442 23.7976 39.6982C23.6745 40.049 23.613 40.4414 23.613 40.8754C23.613 41.3062 23.6745 41.6971 23.7976 42.0479C23.9238 42.3988 24.1131 42.6789 24.3655 42.8881C24.6209 43.0943 24.941 43.1974 25.3257 43.1974Z" fill="currentColor"></path><path d="M59.6919 43.1974C60.0674 43.1974 60.3813 43.0943 60.6337 42.8881C60.886 42.6789 61.0738 42.3988 61.1969 42.0479C61.323 41.6971 61.3861 41.3062 61.3861 40.8754C61.3861 40.4414 61.323 40.049 61.1969 39.6982C61.0738 39.3442 60.886 39.0626 60.6337 38.8533C60.3813 38.6441 60.0674 38.5394 59.6919 38.5394C59.3072 38.5394 58.9871 38.6441 58.7317 38.8533C58.4793 39.0626 58.29 39.3442 58.1638 39.6982C58.0407 40.049 57.9792 40.4414 57.9792 40.8754C57.9792 41.3062 58.0407 41.6971 58.1638 42.0479C58.29 42.3988 58.4793 42.6789 58.7317 42.8881C58.9871 43.0943 59.3072 43.1974 59.6919 43.1974Z" fill="currentColor"></path><path fill-rule="evenodd" clip-rule="evenodd" d="M6 31C4.89543 31 4 31.8954 4 33V47C4 48.1046 4.89543 49 6 49H73C74.1046 49 75 48.1046 75 47V33C75 31.8954 74.1046 31 73 31H6ZM55.5475 38.5994V37.3068H54.0794V36.7482C54.0794 36.4712 54.1425 36.2589 54.2687 36.1112C54.3979 35.9603 54.618 35.8849 54.9288 35.8849C55.0612 35.8849 55.1812 35.8973 55.2889 35.9219C55.3966 35.9434 55.4859 35.965 55.5567 35.9865L55.8891 34.6939C55.7813 34.657 55.6152 34.6154 55.3905 34.5692C55.1658 34.5231 54.9088 34.5 54.6195 34.5C54.2102 34.5 53.8378 34.5785 53.5023 34.7354C53.1669 34.8924 52.8991 35.1294 52.6991 35.4464C52.5021 35.7634 52.4036 36.1604 52.4036 36.6374V37.3068H51.3557V38.5994H52.4036V44.3977H54.0794V38.5994H55.5475ZM9.24649 34.9432V44.3977H10.89V43.2805H10.9869C11.0762 43.4529 11.2008 43.636 11.3608 43.8299C11.524 44.0207 11.7394 44.1838 12.0071 44.3192C12.2749 44.4547 12.6119 44.5224 13.0182 44.5224C13.5752 44.5224 14.0738 44.3793 14.5139 44.093C14.954 43.8068 15.3018 43.3913 15.5572 42.8466C15.8127 42.3018 15.9404 41.6402 15.9404 40.8615C15.9404 40.0736 15.8096 39.4089 15.548 38.8672C15.2895 38.3224 14.9386 37.9116 14.4954 37.6346C14.0553 37.3545 13.5614 37.2145 13.0135 37.2145C12.5981 37.2145 12.2564 37.2853 11.9887 37.4268C11.7209 37.5653 11.5086 37.7331 11.3516 37.93C11.1946 38.1239 11.0731 38.3071 10.9869 38.4794H10.9177V34.9432H9.24649ZM17.3611 37.3068V44.3977H19.0323V40.229C19.0323 39.9274 19.1015 39.6612 19.24 39.4304C19.3785 39.1996 19.5678 39.0195 19.8078 38.8903C20.051 38.7579 20.3249 38.6918 20.6296 38.6918C20.7711 38.6918 20.9173 38.7025 21.0681 38.7241C21.222 38.7425 21.3344 38.7641 21.4051 38.7887V37.2514C21.3282 37.236 21.2313 37.2253 21.1143 37.2191C21.0004 37.2099 20.8973 37.2053 20.805 37.2053C20.3987 37.2053 20.0371 37.3176 19.7201 37.5423C19.4062 37.7639 19.1846 38.0793 19.0554 38.4886H18.9815V37.3068H17.3611ZM25.3164 44.5362C24.624 44.5362 24.0238 44.3839 23.516 44.0792C23.0082 43.7745 22.6143 43.3482 22.3342 42.8004C22.0572 42.2526 21.9187 41.6125 21.9187 40.88C21.9187 40.1475 22.0572 39.5058 22.3342 38.9549C22.6143 38.404 23.0082 37.9762 23.516 37.6715C24.0238 37.3668 24.624 37.2145 25.3164 37.2145C26.0089 37.2145 26.6091 37.3668 27.1169 37.6715C27.6247 37.9762 28.0171 38.404 28.2941 38.9549C28.5741 39.5058 28.7142 40.1475 28.7142 40.88C28.7142 41.6125 28.5741 42.2526 28.2941 42.8004C28.0171 43.3482 27.6247 43.7745 27.1169 44.0792C26.6091 44.3839 26.0089 44.5362 25.3164 44.5362ZM29.3893 37.3068L31.3929 44.3977H33.1379L34.4675 39.6058H34.5644L35.894 44.3977H37.6344L39.6425 37.3068H37.9344L36.7065 42.2649H36.6372L35.3631 37.3068H33.678L32.4039 42.2926H32.3393L31.0928 37.3068H29.3893ZM42.4805 40.2429V44.3977H40.8093V37.3068H42.4066V38.5117H42.4897C42.6529 38.1147 42.9129 37.7992 43.2699 37.5653C43.63 37.3314 44.0747 37.2145 44.6041 37.2145C45.0934 37.2145 45.5197 37.3191 45.8829 37.5284C46.2491 37.7377 46.5322 38.0408 46.7323 38.4379C46.9354 38.8349 47.0354 39.3165 47.0324 39.8828V44.3977H45.3612V40.1413C45.3612 39.6674 45.2381 39.2965 44.9919 39.0288C44.7487 38.761 44.4117 38.6271 43.9809 38.6271C43.6885 38.6271 43.4284 38.6918 43.2007 38.821C42.976 38.9472 42.799 39.1303 42.6698 39.3704C42.5436 39.6104 42.4805 39.9013 42.4805 40.2429ZM59.6827 44.5362C58.9902 44.5362 58.39 44.3839 57.8822 44.0792C57.3744 43.7745 56.9805 43.3482 56.7004 42.8004C56.4234 42.2526 56.2849 41.6125 56.2849 40.88C56.2849 40.1475 56.4234 39.5058 56.7004 38.9549C56.9805 38.404 57.3744 37.9762 57.8822 37.6715C58.39 37.3668 58.9902 37.2145 59.6827 37.2145C60.3751 37.2145 60.9753 37.3668 61.4831 37.6715C61.9909 37.9762 62.3833 38.404 62.6603 38.9549C62.9404 39.5058 63.0804 40.1475 63.0804 40.88C63.0804 41.6125 62.9404 42.2526 62.6603 42.8004C62.3833 43.3482 61.9909 43.7745 61.4831 44.0792C60.9753 44.3839 60.3751 44.5362 59.6827 44.5362ZM67.0298 39.9244L65.5987 37.3068H63.8259L65.9311 40.8523L63.7705 44.3977H65.5433L67.0298 41.8448L68.5301 44.3977H70.289L68.1147 40.8523L70.2521 37.3068H68.484L67.0298 39.9244Z" fill="currentColor"></path></svg>