<svg width="80" height="80" viewBox="0 0 80 80" fill="none" xmlns="http://www.w3.org/2000/svg"><path d="M25.537 42.362c.005.419.085.781.241 1.085.16.311.384.55.672.717.288.164.626.246 1.012.246.258 0 .493-.036.702-.109.21-.075.391-.185.546-.328.154-.145.27-.323.349-.535l1.659.186a2.577 2.577 0 0 1-.599 1.149 2.901 2.901 0 0 1-1.12.756c-.455.177-.976.266-1.562.266-.756 0-1.409-.157-1.96-.472a3.18 3.18 0 0 1-1.261-1.346c-.295-.582-.443-1.268-.443-2.058 0-.775.148-1.456.443-2.042a3.347 3.347 0 0 1 1.246-1.376c.535-.331 1.161-.496 1.882-.496.466 0 .904.076 1.317.226.415.147.782.376 1.1.687.32.312.572.707.756 1.189.184.478.275 1.048.275 1.709v.546h-5.255ZM6.121 37.115v-1.527h8.025v1.527h-3.109v8.532H9.23v-8.532H6.121Zm11.272 4.112v4.42h-1.779V35.588h1.74v3.797h.088a2.18 2.18 0 0 1 .821-1.007c.373-.249.848-.373 1.423-.373.525 0 .981.11 1.371.329.39.219.691.54.904.963.216.422.325.938.325 1.547v4.803h-1.779v-4.528c0-.507-.131-.902-.393-1.184-.259-.285-.623-.428-1.091-.428-.314 0-.596.069-.844.207-.246.135-.439.33-.58.585-.138.255-.206.565-.206.928Zm8.155-.064h3.539a1.91 1.91 0 0 0-.22-.909 1.607 1.607 0 0 0-.604-.633 1.696 1.696 0 0 0-.894-.231 1.73 1.73 0 0 0-.958.265c-.275.174-.49.403-.643.688-.151.281-.217.483-.22.82Z" fill="currentColor" fill-opacity="1" transform="translate(2.22)"></path><path d="M41.153 48.525v-4.018h-.073a3.033 3.033 0 0 1-.398.584 2.194 2.194 0 0 1-.688.521c-.285.144-.643.216-1.075.216a2.852 2.852 0 0 1-1.592-.457c-.468-.304-.838-.746-1.11-1.326-.272-.58-.408-1.284-.408-2.112 0-.838.138-1.546.413-2.122.278-.58.653-1.017 1.125-1.311a2.888 2.888 0 0 1 1.576-.447c.443 0 .806.075 1.091.226.285.147.511.325.678.535.167.206.296.401.388.584h.108v-1.247h1.748v10.374h-1.783Zm18.923-2.682c-.753 0-1.4-.166-1.94-.496a3.32 3.32 0 0 1-1.243-1.371c-.288-.586-.432-1.26-.432-2.023 0-.767.147-1.443.442-2.029a3.301 3.301 0 0 1 1.248-1.375c.54-.331 1.179-.496 1.915-.496.613 0 1.155.113 1.626.339a2.77 2.77 0 0 1 1.135.948c.281.406.442.88.481 1.424h-1.699a1.628 1.628 0 0 0-.491-.909c-.256-.245-.598-.368-1.027-.368-.364 0-.683.098-.958.295-.275.193-.489.471-.643.835-.151.363-.226.799-.226 1.306 0 .514.075.956.226 1.326.15.367.362.65.633.85.275.196.598.295.968.295a1.6 1.6 0 0 0 .702-.148c.21-.101.385-.247.526-.437.141-.19.237-.421.29-.692h1.699a2.963 2.963 0 0 1-.471 1.419c-.272.41-.642.73-1.11.963-.469.229-1.019.344-1.651.344Zm-10.504-3.321v-4.371h1.778v7.544h-1.724v-1.341h-.078a2.279 2.279 0 0 1-.84 1.037c-.387.268-.863.403-1.429.403a2.58 2.58 0 0 1-1.312-.329 2.29 2.29 0 0 1-.884-.968c-.213-.426-.319-.94-.319-1.542v-4.804h1.778v4.529c0 .478.131.857.393 1.139.262.282.605.423 1.031.423.262 0 .516-.064.761-.192.246-.128.447-.318.605-.57.16-.255.24-.574.24-.958Zm3.607 3.173v-7.544h1.778v7.544h-1.778Zm13.367-4.514h.123l2.711-3.03h2.078l-2.925 3.256 3.097 4.288h-2.127l-2.31-3.229-.647.693v2.536h-1.778V35.636h1.778v5.545Zm-27.131 3.188c.376 0 .697-.101.962-.304.266-.207.467-.493.604-.86.138-.367.207-.794.207-1.282s-.069-.912-.207-1.272c-.134-.36-.333-.64-.599-.84-.262-.2-.584-.3-.967-.3-.397 0-.727.104-.992.31-.266.206-.465.491-.6.855a3.589 3.589 0 0 0-.201 1.247c0 .472.067.892.201 1.262.138.367.339.657.604.87.269.209.598.314.988.314Zm14.658-7.289c-.282 0-.524-.093-.727-.28a.902.902 0 0 1-.305-.683c0-.268.102-.496.305-.682.203-.19.445-.285.727-.285.285 0 .527.095.727.285a.89.89 0 0 1 .304.682.901.901 0 0 1-.304.683c-.2.187-.442.28-.727.28Z" fill="currentColor" fill-opacity="1" transform="translate(1.8 0.5)"></path><path d="M41.153 48.525v-4.018h-.073a3.033 3.033 0 0 1-.398.584 2.194 2.194 0 0 1-.688.521c-.285.144-.643.216-1.075.216a2.852 2.852 0 0 1-1.592-.457c-.468-.304-.838-.746-1.11-1.326-.272-.58-.408-1.284-.408-2.112 0-.838.138-1.546.413-2.122.278-.58.653-1.017 1.125-1.311a2.888 2.888 0 0 1 1.576-.447c.443 0 .806.075 1.091.226.285.147.511.325.678.535.167.206.296.401.388.584h.108v-1.247h1.748v10.374h-1.783Zm18.923-2.682c-.753 0-1.4-.166-1.94-.496a3.32 3.32 0 0 1-1.243-1.371c-.288-.586-.432-1.26-.432-2.023 0-.767.147-1.443.442-2.029a3.301 3.301 0 0 1 1.248-1.375c.54-.331 1.179-.496 1.915-.496.613 0 1.155.113 1.626.339a2.77 2.77 0 0 1 1.135.948c.281.406.442.88.481 1.424h-1.699a1.628 1.628 0 0 0-.491-.909c-.256-.245-.598-.368-1.027-.368-.364 0-.683.098-.958.295-.275.193-.489.471-.643.835-.151.363-.226.799-.226 1.306 0 .514.075.956.226 1.326.15.367.362.65.633.85.275.196.598.295.968.295a1.6 1.6 0 0 0 .702-.148c.21-.101.385-.247.526-.437.141-.19.237-.421.29-.692h1.699a2.963 2.963 0 0 1-.471 1.419c-.272.41-.642.73-1.11.963-.469.229-1.019.344-1.651.344Zm-10.504-3.321v-4.371h1.778v7.544h-1.724v-1.341h-.078a2.279 2.279 0 0 1-.84 1.037c-.387.268-.863.403-1.429.403a2.58 2.58 0 0 1-1.312-.329 2.29 2.29 0 0 1-.884-.968c-.213-.426-.319-.94-.319-1.542v-4.804h1.778v4.529c0 .478.131.857.393 1.139.262.282.605.423 1.031.423.262 0 .516-.064.761-.192.246-.128.447-.318.605-.57.16-.255.24-.574.24-.958Zm3.607 3.173v-7.544h1.778v7.544h-1.778Zm13.367-4.514h.123l2.711-3.03h2.078l-2.925 3.256 3.097 4.288h-2.127l-2.31-3.229-.647.693v2.536h-1.778V35.636h1.778v5.545Zm-27.131 3.188c.376 0 .697-.101.962-.304.266-.207.467-.493.604-.86.138-.367.207-.794.207-1.282s-.069-.912-.207-1.272c-.134-.36-.333-.64-.599-.84-.262-.2-.584-.3-.967-.3-.397 0-.727.104-.992.31-.266.206-.465.491-.6.855a3.589 3.589 0 0 0-.201 1.247c0 .472.067.892.201 1.262.138.367.339.657.604.87.269.209.598.314.988.314Zm14.658-7.289c-.282 0-.524-.093-.727-.28a.902.902 0 0 1-.305-.683c0-.268.102-.496.305-.682.203-.19.445-.285.727-.285.285 0 .527.095.727.285a.89.89 0 0 1 .304.682.901.901 0 0 1-.304.683c-.2.187-.442.28-.727.28Z" fill="currentColor" fill-opacity="0.3" transform="translate(1.8 4.88)"></path><path d="M53.75 56.56v4.69a.75.75 0 0 0 1.5 0v-4.69l1.281 1.026a.752.752 0 0 0 1.055-.117.752.752 0 0 0-.117-1.055l-2.5-2a.752.752 0 0 0-.938 0l-2.5 2a.752.752 0 0 0-.117 1.055.752.752 0 0 0 1.055.117l1.281-1.026Z" fill="currentColor" fill-opacity="1" transform="translate(1)"></path></svg>