<svg width="80" height="80" viewBox="0 0 80 80" fill="none" xmlns="http://www.w3.org/2000/svg"><path d="M8.07264 27.3643V25.8182H16.1962V27.3643H13.0492V36H11.2197V27.3643H8.07264ZM19.2824 31.5256V36H17.4827V25.8182H19.2427V29.6612H19.3322C19.5111 29.2304 19.7879 28.8906 20.1624 28.642C20.5403 28.3902 21.0208 28.2642 21.6042 28.2642C22.1345 28.2642 22.5968 28.3752 22.9912 28.5973C23.3857 28.8194 23.6906 29.1442 23.906 29.5717C24.1248 29.9993 24.2341 30.5213 24.2341 31.1378V36H22.4344V31.4162C22.4344 30.9025 22.3019 30.5031 22.0367 30.218C21.7749 29.9297 21.407 29.7855 20.933 29.7855C20.6148 29.7855 20.3298 29.8551 20.0779 29.9943C19.8293 30.1302 19.6338 30.3274 19.4912 30.5859C19.352 30.8445 19.2824 31.1577 19.2824 31.5256ZM29.2493 36.1491C28.4837 36.1491 27.8225 35.9901 27.2657 35.6719C26.7122 35.3504 26.2863 34.8963 25.988 34.3097C25.6897 33.7197 25.5405 33.0253 25.5405 32.2266C25.5405 31.4411 25.6897 30.7517 25.988 30.1584C26.2896 29.5618 26.7105 29.0978 27.2508 28.7663C27.791 28.4316 28.4257 28.2642 29.1549 28.2642C29.6255 28.2642 30.0697 28.3404 30.4873 28.4929C30.9082 28.642 31.2794 28.8741 31.6009 29.1889C31.9257 29.5038 32.1809 29.9048 32.3665 30.392C32.5521 30.8759 32.6449 31.4527 32.6449 32.1222V32.674H26.3857V31.4609H30.9198C30.9165 31.1162 30.8419 30.8097 30.6961 30.5412C30.5502 30.2694 30.3464 30.0556 30.0846 29.8999C29.826 29.7441 29.5244 29.6662 29.1797 29.6662C28.8118 29.6662 28.4887 29.7557 28.2103 29.9347C27.9319 30.1103 27.7148 30.3423 27.559 30.6307C27.4065 30.9157 27.3287 31.2289 27.3253 31.5703V32.6293C27.3253 33.0734 27.4065 33.4545 27.5689 33.7727C27.7314 34.0876 27.9584 34.3295 28.2501 34.4986C28.5417 34.6643 28.8831 34.7472 29.2742 34.7472C29.536 34.7472 29.773 34.7107 29.9851 34.6378C30.1973 34.5616 30.3812 34.4505 30.537 34.3047C30.6928 34.1589 30.8104 33.9782 30.89 33.7628L32.5704 33.9517C32.4643 34.3958 32.2621 34.7836 31.9638 35.1151C31.6689 35.4432 31.291 35.6984 30.8303 35.8807C30.3696 36.0597 29.8426 36.1491 29.2493 36.1491ZM42.336 38.8636V34.7969H42.2615C42.1686 34.9825 42.0344 35.1797 41.8588 35.3885C41.6831 35.594 41.4511 35.7696 41.1627 35.9155C40.8744 36.0613 40.5115 36.1342 40.074 36.1342C39.474 36.1342 38.9371 35.9801 38.4632 35.6719C37.9892 35.3636 37.6147 34.9162 37.3396 34.3295C37.0645 33.7429 36.9269 33.0303 36.9269 32.1918C36.9269 31.3433 37.0661 30.6274 37.3445 30.044C37.6263 29.4574 38.0058 29.0149 38.483 28.7166C38.9603 28.415 39.4923 28.2642 40.0789 28.2642C40.5264 28.2642 40.8943 28.3404 41.1826 28.4929C41.471 28.642 41.6997 28.8227 41.8687 29.0348C42.0377 29.2436 42.1686 29.4408 42.2615 29.6264H42.3708V28.3636H44.1407V38.8636H42.336ZM40.5761 34.6577C40.9572 34.6577 41.282 34.5549 41.5505 34.3494C41.819 34.1406 42.0228 33.8506 42.162 33.4794C42.3012 33.1082 42.3708 32.6757 42.3708 32.1818C42.3708 31.688 42.3012 31.2588 42.162 30.8942C42.0261 30.5296 41.824 30.2462 41.5555 30.044C41.2903 29.8419 40.9639 29.7408 40.5761 29.7408C40.175 29.7408 39.8403 29.8452 39.5718 30.054C39.3034 30.2628 39.1012 30.5511 38.9653 30.919C38.8294 31.2869 38.7615 31.7079 38.7615 32.1818C38.7615 32.6591 38.8294 33.085 38.9653 33.4595C39.1045 33.8307 39.3083 34.1241 39.5768 34.3395C39.8486 34.5516 40.1817 34.6577 40.5761 34.6577ZM50.6573 32.7884V28.3636H52.457V36H50.712V34.6428H50.6325C50.4601 35.0703 50.1767 35.42 49.7823 35.6918C49.3912 35.9635 48.909 36.0994 48.3356 36.0994C47.8351 36.0994 47.3927 35.9884 47.0082 35.7663C46.627 35.541 46.3287 35.2145 46.1133 34.7869C45.8979 34.3561 45.7901 33.8357 45.7901 33.2259V28.3636H47.5899V32.9474C47.5899 33.4313 47.7224 33.8158 47.9876 34.1009C48.2527 34.3859 48.6008 34.5284 49.0316 34.5284C49.2968 34.5284 49.5536 34.4638 49.8022 34.3345C50.0508 34.2053 50.2546 34.013 50.4137 33.7578C50.5761 33.4993 50.6573 33.1761 50.6573 32.7884ZM54.1077 36V28.3636H55.9074V36H54.1077ZM55.0126 27.2798C54.7275 27.2798 54.4822 27.1854 54.2768 26.9964C54.0713 26.8042 53.9685 26.5739 53.9685 26.3054C53.9685 26.0336 54.0713 25.8033 54.2768 25.6143C54.4822 25.4221 54.7275 25.326 55.0126 25.326C55.3009 25.326 55.5462 25.4221 55.7483 25.6143C55.9538 25.8033 56.0566 26.0336 56.0566 26.3054C56.0566 26.5739 55.9538 26.8042 55.7483 26.9964C55.5462 27.1854 55.3009 27.2798 55.0126 27.2798ZM60.8891 36.1491C60.1268 36.1491 59.4722 35.9818 58.9253 35.647C58.3817 35.3123 57.9625 34.8499 57.6675 34.2599C57.3758 33.6667 57.23 32.9839 57.23 32.2116C57.23 31.4361 57.3791 30.7517 57.6774 30.1584C57.9757 29.5618 58.3967 29.0978 58.9402 28.7663C59.4871 28.4316 60.1334 28.2642 60.8791 28.2642C61.4989 28.2642 62.0475 28.3786 62.5247 28.6072C63.0053 28.8326 63.3881 29.1525 63.6732 29.5668C63.9582 29.9777 64.1206 30.4583 64.1604 31.0085H62.4402C62.3706 30.6406 62.2049 30.334 61.9431 30.0888C61.6845 29.8402 61.3382 29.7159 60.904 29.7159C60.5361 29.7159 60.2129 29.8153 59.9345 30.0142C59.6561 30.2098 59.439 30.4915 59.2833 30.8594C59.1308 31.2273 59.0546 31.6681 59.0546 32.1818C59.0546 32.7022 59.1308 33.1496 59.2833 33.5241C59.4357 33.8954 59.6495 34.1821 59.9246 34.3842C60.203 34.5831 60.5295 34.6825 60.904 34.6825C61.1691 34.6825 61.4061 34.6328 61.6149 34.5334C61.8271 34.4306 62.0044 34.2831 62.1469 34.0909C62.2894 33.8987 62.3872 33.665 62.4402 33.3899H64.1604C64.1173 33.9302 63.9582 34.4091 63.6831 34.8267C63.408 35.241 63.0335 35.5658 62.5595 35.8011C62.0856 36.0331 61.5288 36.1491 60.8891 36.1491ZM67.0788 33.6037L67.0738 31.4311H67.3622L70.1065 28.3636H72.2095L68.8338 32.1222H68.4609L67.0788 33.6037ZM65.4382 36V25.8182H67.2379V36H65.4382ZM70.2308 36L67.745 32.5249L68.9581 31.2571L72.3835 36H70.2308ZM56.8819 46.3636V47.7557H52.3677V46.3636H56.8819ZM53.4962 54V45.6428C53.4962 45.129 53.6023 44.7015 53.8144 44.3601C54.0298 44.0187 54.3182 43.7635 54.6795 43.5945C55.0407 43.4254 55.4418 43.3409 55.8826 43.3409C56.1941 43.3409 56.4709 43.3658 56.7128 43.4155C56.9548 43.4652 57.1338 43.5099 57.2498 43.5497L56.8918 44.9418C56.8156 44.9186 56.7195 44.8954 56.6035 44.8722C56.4875 44.8456 56.3582 44.8324 56.2157 44.8324C55.8809 44.8324 55.6439 44.9136 55.5047 45.076C55.3688 45.2351 55.3009 45.4638 55.3009 45.7621V54H53.4962ZM61.1352 54.1491C60.3894 54.1491 59.7431 53.9851 59.1963 53.657C58.6494 53.3288 58.2251 52.8698 57.9235 52.2798C57.6252 51.6899 57.4761 51.0005 57.4761 50.2116C57.4761 49.4228 57.6252 48.7318 57.9235 48.1385C58.2251 47.5452 58.6494 47.0845 59.1963 46.7564C59.7431 46.4283 60.3894 46.2642 61.1352 46.2642C61.8809 46.2642 62.5272 46.4283 63.0741 46.7564C63.621 47.0845 64.0436 47.5452 64.3418 48.1385C64.6435 48.7318 64.7943 49.4228 64.7943 50.2116C64.7943 51.0005 64.6435 51.6899 64.3418 52.2798C64.0436 52.8698 63.621 53.3288 63.0741 53.657C62.5272 53.9851 61.8809 54.1491 61.1352 54.1491ZM61.1451 52.7074C61.5495 52.7074 61.8875 52.5964 62.1593 52.3743C62.4311 52.1489 62.6333 51.8473 62.7659 51.4695C62.9017 51.0916 62.9697 50.6707 62.9697 50.2067C62.9697 49.7393 62.9017 49.3168 62.7659 48.9389C62.6333 48.5578 62.4311 48.2545 62.1593 48.0291C61.8875 47.8037 61.5495 47.6911 61.1451 47.6911C60.7308 47.6911 60.3861 47.8037 60.111 48.0291C59.8392 48.2545 59.6354 48.5578 59.4995 48.9389C59.3669 49.3168 59.3007 49.7393 59.3007 50.2067C59.3007 50.6707 59.3669 51.0916 59.4995 51.4695C59.6354 51.8473 59.8392 52.1489 60.111 52.3743C60.3861 52.5964 60.7308 52.7074 61.1451 52.7074ZM67.3063 46.3636L68.8475 49.1825L70.4135 46.3636H72.3176L70.0158 50.1818L72.3574 54H70.4632L68.8475 51.2507L67.2466 54H65.3375L67.6642 50.1818L65.3972 46.3636H67.3063Z" fill="currentColor" fill-opacity="0.25"></path><path d="M8.2193 54V43.8182H10.019V47.6264H10.0936C10.1864 47.4408 10.3173 47.2436 10.4863 47.0348C10.6554 46.8227 10.8841 46.642 11.1724 46.4929C11.4608 46.3404 11.8287 46.2642 12.2761 46.2642C12.8661 46.2642 13.398 46.415 13.872 46.7166C14.3493 47.0149 14.7271 47.4574 15.0055 48.044C15.2872 48.6274 15.4281 49.3433 15.4281 50.1918C15.4281 51.0303 15.2906 51.7429 15.0155 52.3295C14.7404 52.9162 14.3658 53.3636 13.8919 53.6719C13.4179 53.9801 12.881 54.1342 12.2811 54.1342C11.8436 54.1342 11.4807 54.0613 11.1923 53.9155C10.904 53.7696 10.672 53.594 10.4963 53.3885C10.3239 53.1797 10.1897 52.9825 10.0936 52.7969H9.98919V54H8.2193ZM9.98421 50.1818C9.98421 50.6757 10.0538 51.1082 10.193 51.4794C10.3355 51.8506 10.5394 52.1406 10.8045 52.3494C11.073 52.5549 11.3978 52.6577 11.779 52.6577C12.1767 52.6577 12.5098 52.5516 12.7782 52.3395C13.0467 52.1241 13.2489 51.8307 13.3848 51.4595C13.524 51.085 13.5936 50.6591 13.5936 50.1818C13.5936 49.7079 13.5256 49.2869 13.3898 48.919C13.2539 48.5511 13.0517 48.2628 12.7832 48.054C12.5148 47.8452 12.18 47.7408 11.779 47.7408C11.3945 47.7408 11.068 47.8419 10.7996 48.044C10.5311 48.2462 10.3273 48.5296 10.188 48.8942C10.0522 49.2588 9.98421 49.688 9.98421 50.1818ZM16.7581 54V46.3636H18.5031V47.6364H18.5827C18.7219 47.1955 18.9605 46.8558 19.2986 46.6172C19.64 46.3752 20.0294 46.2543 20.4669 46.2543C20.5664 46.2543 20.6774 46.2592 20.8 46.2692C20.926 46.2758 21.0304 46.2874 21.1132 46.304V47.9595C21.037 47.933 20.916 47.9098 20.7503 47.8899C20.5879 47.8667 20.4305 47.8551 20.278 47.8551C19.9499 47.8551 19.6549 47.9264 19.3931 48.0689C19.1345 48.2081 18.9307 48.402 18.7816 48.6506C18.6324 48.8991 18.5578 49.1858 18.5578 49.5107V54H16.7581ZM25.1254 54.1491C24.3797 54.1491 23.7334 53.9851 23.1865 53.657C22.6396 53.3288 22.2154 52.8698 21.9138 52.2798C21.6155 51.6899 21.4663 51.0005 21.4663 50.2116C21.4663 49.4228 21.6155 48.7318 21.9138 48.1385C22.2154 47.5452 22.6396 47.0845 23.1865 46.7564C23.7334 46.4283 24.3797 46.2642 25.1254 46.2642C25.8711 46.2642 26.5175 46.4283 27.0643 46.7564C27.6112 47.0845 28.0338 47.5452 28.3321 48.1385C28.6337 48.7318 28.7845 49.4228 28.7845 50.2116C28.7845 51.0005 28.6337 51.6899 28.3321 52.2798C28.0338 52.8698 27.6112 53.3288 27.0643 53.657C26.5175 53.9851 25.8711 54.1491 25.1254 54.1491ZM25.1354 52.7074C25.5397 52.7074 25.8778 52.5964 26.1496 52.3743C26.4213 52.1489 26.6235 51.8473 26.7561 51.4695C26.892 51.0916 26.9599 50.6707 26.9599 50.2067C26.9599 49.7393 26.892 49.3168 26.7561 48.9389C26.6235 48.5578 26.4213 48.2545 26.1496 48.0291C25.8778 47.8037 25.5397 47.6911 25.1354 47.6911C24.7211 47.6911 24.3764 47.8037 24.1013 48.0291C23.8295 48.2545 23.6256 48.5578 23.4898 48.9389C23.3572 49.3168 23.2909 49.7393 23.2909 50.2067C23.2909 50.6707 23.3572 51.0916 23.4898 51.4695C23.6256 51.8473 23.8295 52.1489 24.1013 52.3743C24.3764 52.5964 24.7211 52.7074 25.1354 52.7074ZM31.4693 54L29.3116 46.3636H31.1461L32.4884 51.733H32.558L33.9302 46.3636H35.7448L37.117 51.7031H37.1916L38.514 46.3636H40.3535L38.1909 54H36.3166L34.8847 48.8395H34.7803L33.3485 54H31.4693ZM43.2098 49.5256V54H41.4101V46.3636H43.1302V47.6612H43.2197C43.3954 47.2337 43.6755 46.8939 44.0599 46.642C44.4477 46.3902 44.9266 46.2642 45.4967 46.2642C46.0237 46.2642 46.4827 46.3769 46.8738 46.6023C47.2683 46.8277 47.5732 47.1541 47.7886 47.5817C48.0074 48.0092 48.1151 48.5279 48.1118 49.1378V54H46.3121V49.4162C46.3121 48.9058 46.1795 48.5064 45.9143 48.218C45.6525 47.9297 45.2896 47.7855 44.8256 47.7855C44.5107 47.7855 44.2306 47.8551 43.9854 47.9943C43.7434 48.1302 43.5528 48.3274 43.4136 48.5859C43.2777 48.8445 43.2098 49.1577 43.2098 49.5256Z" fill="currentColor"></path></svg>