<svg width="80" height="80" viewBox="0 0 80 80" fill="none" xmlns="http://www.w3.org/2000/svg"><path d="M27.5699 46.6015V42.5836H27.4962C27.4045 42.767 27.2719 42.9618 27.0984 43.1681C26.9248 43.3711 26.6956 43.5447 26.4107 43.6888C26.1258 43.8328 25.7673 43.9049 25.335 43.9049C24.7423 43.9049 24.2119 43.7526 23.7436 43.4481C23.2753 43.1436 22.9053 42.7015 22.6335 42.1219C22.3617 41.5423 22.2258 40.8383 22.2258 40.0098C22.2258 39.1715 22.3634 38.4642 22.6384 37.8879C22.9168 37.3083 23.2917 36.8712 23.7632 36.5765C24.2348 36.2785 24.7603 36.1295 25.3399 36.1295C25.782 36.1295 26.1455 36.2048 26.4303 36.3554C26.7152 36.5028 26.9412 36.6813 27.1082 36.8908C27.2752 37.0971 27.4045 37.292 27.4962 37.4753H27.6043V36.2277H29.3529V46.6015H27.5699ZM25.8311 42.4461C26.2077 42.4461 26.5286 42.3446 26.7938 42.1415C27.0591 41.9352 27.2604 41.6487 27.398 41.282C27.5355 40.9152 27.6043 40.4879 27.6043 40C27.6043 39.5121 27.5355 39.088 27.398 38.7278C27.2637 38.3676 27.064 38.0877 26.7987 37.8879C26.5368 37.6882 26.2142 37.5883 25.8311 37.5883C25.4349 37.5883 25.1042 37.6915 24.8389 37.8977C24.5737 38.104 24.3739 38.3889 24.2397 38.7524C24.1054 39.1159 24.0383 39.5317 24.0383 40C24.0383 40.4715 24.1054 40.8923 24.2397 41.2623C24.3772 41.6291 24.5786 41.9189 24.8438 42.1317C25.1123 42.3413 25.4414 42.4461 25.8311 42.4461Z" fill="currentColor"></path><path d="M35.9887 40.5992V36.2277H37.7668V43.7723H36.0427V42.4313H35.9642C35.7939 42.8538 35.5139 43.1992 35.1242 43.4677C34.7378 43.7362 34.2614 43.8705 33.6949 43.8705C33.2004 43.8705 32.7633 43.7608 32.3835 43.5414C32.0069 43.3187 31.7122 42.9962 31.4993 42.5738C31.2865 42.1481 31.1801 41.634 31.1801 41.0315V36.2277H32.9581V40.7564C32.9581 41.2345 33.0891 41.6143 33.3511 41.896C33.613 42.1776 33.9569 42.3184 34.3826 42.3184C34.6445 42.3184 34.8983 42.2545 35.1439 42.1268C35.3895 41.9991 35.5909 41.8092 35.748 41.557C35.9085 41.3016 35.9887 40.9824 35.9887 40.5992Z" fill="currentColor"></path><path d="M39.5952 43.7723V36.2277H41.3733V43.7723H39.5952ZM40.4892 35.157C40.2075 35.157 39.9652 35.0636 39.7622 34.877C39.5592 34.6871 39.4577 34.4595 39.4577 34.1942C39.4577 33.9257 39.5592 33.6982 39.7622 33.5115C39.9652 33.3216 40.2075 33.2266 40.4892 33.2266C40.774 33.2266 41.0164 33.3216 41.2161 33.5115C41.4191 33.6982 41.5206 33.9257 41.5206 34.1942C41.5206 34.4595 41.4191 34.6871 41.2161 34.877C41.0164 35.0636 40.774 35.157 40.4892 35.157Z" fill="currentColor"></path><path d="M46.4926 43.9196C45.7395 43.9196 45.0927 43.7543 44.5524 43.4235C44.0154 43.0928 43.6012 42.636 43.3098 42.0531C43.0216 41.467 42.8775 40.7924 42.8775 40.0295C42.8775 39.2632 43.0249 38.587 43.3196 38.0009C43.6143 37.4115 44.0302 36.953 44.5672 36.6256C45.1075 36.2949 45.746 36.1295 46.4828 36.1295C47.0951 36.1295 47.637 36.2425 48.1086 36.4684C48.5834 36.6911 48.9616 37.0071 49.2432 37.4164C49.5248 37.8224 49.6853 38.2972 49.7246 38.8408H48.0251C47.9563 38.4773 47.7926 38.1744 47.5339 37.9321C47.2785 37.6865 46.9363 37.5637 46.5073 37.5637C46.1439 37.5637 45.8246 37.662 45.5495 37.8585C45.2745 38.0517 45.06 38.33 44.9061 38.6935C44.7555 39.0569 44.6801 39.4924 44.6801 40C44.6801 40.5141 44.7555 40.9562 44.9061 41.3262C45.0567 41.6929 45.2679 41.9762 45.5397 42.1759C45.8148 42.3724 46.1373 42.4706 46.5073 42.4706C46.7693 42.4706 47.0034 42.4215 47.2097 42.3233C47.4193 42.2218 47.5945 42.0761 47.7353 41.8861C47.8761 41.6962 47.9727 41.4654 48.0251 41.1936H49.7246C49.682 41.7273 49.5248 42.2005 49.253 42.6131C48.9812 43.0224 48.6112 43.3433 48.143 43.5758C47.6747 43.805 47.1246 43.9196 46.4926 43.9196Z" fill="currentColor"></path><path d="M52.8055 41.4048L52.8006 39.2583H53.0855L55.7968 36.2277H57.8745L54.5394 39.9411H54.171L52.8055 41.4048ZM51.1846 43.7723V33.7129H52.9627V43.7723H51.1846ZM55.9196 43.7723L53.4637 40.3389L54.6622 39.0864L58.0464 43.7723H55.9196Z" fill="currentColor"></path><path opacity="0.5" fill-rule="evenodd" clip-rule="evenodd" d="M69.3027 40C69.3027 40.2761 69.0789 40.5 68.8027 40.5L65.6027 40.5C65.3266 40.5 65.1027 40.2761 65.1027 40C65.1027 39.7239 65.3266 39.5 65.6027 39.5L68.8027 39.5C69.0789 39.5 69.3027 39.7239 69.3027 40Z" fill="currentColor"></path><path opacity="0.5" fill-rule="evenodd" clip-rule="evenodd" d="M66.6191 45.2774C66.466 45.5071 66.1555 45.5692 65.9258 45.416L63.5258 43.816C63.296 43.6629 63.2339 43.3524 63.3871 43.1227C63.5403 42.8929 63.8507 42.8308 64.0805 42.984L66.4805 44.584C66.7102 44.7372 66.7723 45.0476 66.6191 45.2774Z" fill="currentColor"></path><path opacity="0.5" fill-rule="evenodd" clip-rule="evenodd" d="M66.6192 34.7227C66.7723 34.9524 66.7102 35.2629 66.4805 35.416L64.0805 37.016C63.8507 37.1692 63.5403 37.1071 63.3871 36.8774C63.2339 36.6476 63.296 36.3372 63.5258 36.184L65.9258 34.584C66.1555 34.4308 66.466 34.4929 66.6192 34.7227Z" fill="currentColor"></path><path opacity="0.5" fill-rule="evenodd" clip-rule="evenodd" d="M11.5 40.0001C11.5 39.7239 11.7239 39.5001 12 39.5001L15.2 39.5001C15.4761 39.5001 15.7 39.7239 15.7 40.0001C15.7 40.2762 15.4761 40.5001 15.2 40.5001L12 40.5001C11.7239 40.5001 11.5 40.2762 11.5 40.0001Z" fill="currentColor"></path><path opacity="0.5" fill-rule="evenodd" clip-rule="evenodd" d="M14.1836 34.7227C14.3368 34.4929 14.6472 34.4309 14.877 34.584L17.277 36.184C17.5067 36.3372 17.5688 36.6476 17.4156 36.8774C17.2625 37.1072 16.952 37.1693 16.7223 37.0161L14.3223 35.4161C14.0925 35.2629 14.0304 34.9525 14.1836 34.7227Z" fill="currentColor"></path><path opacity="0.5" fill-rule="evenodd" clip-rule="evenodd" d="M14.1836 45.2774C14.0304 45.0476 14.0925 44.7372 14.3223 44.584L16.7223 42.984C16.952 42.8308 17.2625 42.8929 17.4156 43.1227C17.5688 43.3525 17.5067 43.6629 17.277 43.8161L14.877 45.4161C14.6472 45.5692 14.3368 45.5072 14.1836 45.2774Z" fill="currentColor"></path><path fill-rule="evenodd" clip-rule="evenodd" d="M36.2849 32.4375C36.1615 32.7001 35.9057 32.8753 35.6163 32.8954C35.267 32.9197 34.9345 32.9949 34.6247 33.1142C34.4398 33.1854 34.235 33.1854 34.0501 33.1143C33.6701 32.9682 33.2567 32.8878 32.8221 32.8878H31.0442C30.7882 32.8878 30.5397 32.9155 30.3029 32.9679C30.1894 32.993 30.0718 32.993 29.9582 32.968C29.7197 32.9155 29.4721 32.8878 29.2163 32.8878H27.4682C27.266 32.8878 27.0687 32.9051 26.8789 32.9385C26.7757 32.9566 26.6699 32.9543 26.5675 32.9316C26.1613 32.8417 25.7076 32.7899 25.2041 32.7899C23.9463 32.7899 22.8219 33.1202 21.8047 33.7614L21.8031 33.7625C20.8239 34.3765 20.0051 35.2584 19.4139 36.4907C19.4117 36.4952 19.4096 36.4996 19.4073 36.504C18.952 37.4608 18.6638 38.6462 18.6638 40.0963C18.6638 41.5135 18.9406 42.6838 19.3838 43.6394C19.3878 43.6473 19.3917 43.6552 19.3955 43.6633C19.9698 44.8867 20.7715 45.7766 21.739 46.4066C22.3244 46.7869 22.9461 47.0617 23.6104 47.2275C23.8775 47.2942 24.0915 47.4935 24.1771 47.7552C24.6248 49.1253 25.9143 50.1137 27.4331 50.1137H29.2163C30.6842 50.1137 31.9376 49.1911 32.4254 47.8917C32.5486 47.5634 32.8712 47.3537 33.2213 47.3743C33.3298 47.3807 33.4416 47.3835 33.5584 47.3835C34.0642 47.3835 34.5314 47.3309 34.9647 47.2345C35.0693 47.2112 35.1776 47.2092 35.283 47.2286C35.4835 47.2654 35.6915 47.2846 35.9066 47.2846H37.6302C37.8862 47.2846 38.1349 47.2568 38.3732 47.2044C38.4867 47.1794 38.6044 47.1794 38.7179 47.2045C38.9546 47.2568 39.2032 47.2846 39.4592 47.2846H41.2371C41.8059 47.2846 42.3398 47.1466 42.8112 46.9027C43.0233 46.793 43.2732 46.7837 43.4928 46.8774C44.323 47.2316 45.271 47.4325 46.3569 47.4325C47.3616 47.4325 48.2396 47.2588 49.0079 46.9602C49.2093 46.8819 49.4338 46.8884 49.6303 46.9782C50.0604 47.1748 50.5409 47.2846 51.048 47.2846H52.8259C53.2506 47.2846 53.6536 47.2085 54.0255 47.0693C54.2057 47.0019 54.404 47.0017 54.5843 47.0686C54.964 47.2096 55.3688 47.2846 55.7837 47.2846H57.9106C59.1967 47.2846 60.3748 46.5644 60.9604 45.4182L60.9605 45.418C61.5461 44.2726 61.4411 42.8961 60.6881 41.8521C60.688 41.852 60.6879 41.8519 60.6878 41.8518L59.5868 40.3274C59.3665 40.0224 59.3886 39.6051 59.6398 39.3249L60.2867 38.6035L60.2873 38.6029C61.1909 37.5975 61.4181 36.1535 60.8676 34.9179C60.3162 33.6829 59.0906 32.8878 57.7382 32.8878H56.6913C56.3748 32.8878 56.0881 32.7012 55.9599 32.4119C55.4269 31.2094 54.2236 30.3725 52.8269 30.3725H51.048C49.6692 30.3725 48.4782 31.188 47.9358 32.3659C47.7932 32.6757 47.4699 32.861 47.1305 32.8275C46.8781 32.8025 46.6171 32.7899 46.3463 32.7899C45.9611 32.7899 45.5946 32.8152 45.2462 32.8649C44.8999 32.9142 44.5617 32.7328 44.4112 32.4171C44.187 31.9466 43.8617 31.5057 43.4207 31.096L43.4168 31.0925L43.4168 31.0925C42.57 30.2955 41.5659 29.8863 40.3529 29.8863C39.1604 29.8863 38.156 30.2852 37.2963 31.085L37.2951 31.0861C36.8422 31.5057 36.5107 31.9568 36.2849 32.4375ZM61.5983 34.5924C62.2771 36.116 61.9973 37.8971 60.8823 39.1376L60.2354 39.859L61.3366 41.3837C62.2654 42.6711 62.3952 44.3692 61.6728 45.7822C60.9504 47.1962 59.497 48.0846 57.9106 48.0846H55.7837C55.2719 48.0846 54.7729 47.992 54.3059 47.8186C53.8452 47.991 53.3472 48.0846 52.8259 48.0846H51.048C50.4245 48.0846 49.8308 47.9495 49.2977 47.7058C48.4327 48.042 47.456 48.2325 46.3569 48.2325C45.1695 48.2325 44.1141 48.0122 43.1788 47.6132C42.5968 47.9144 41.9372 48.0846 41.2371 48.0846H39.4592C39.1453 48.0846 38.8389 48.0505 38.5452 47.9856C38.2505 48.0505 37.9441 48.0846 37.6302 48.0846H35.9066C35.6438 48.0846 35.3874 48.0612 35.1384 48.0154C34.6458 48.125 34.1202 48.1835 33.5584 48.1835C33.4286 48.1835 33.3009 48.1803 33.1743 48.1729C32.5732 49.7742 31.0283 50.9137 29.2163 50.9137H27.4331C25.5584 50.9137 23.9688 49.6933 23.4166 48.0037C22.6623 47.8154 21.959 47.5037 21.3025 47.077C20.2077 46.3641 19.3076 45.3587 18.6713 44.0032L18.6703 44.0021C18.167 42.9275 17.8638 41.6327 17.8638 40.0963C17.8638 38.5344 18.1755 37.2278 18.6883 36.1532C18.6887 36.1526 18.689 36.1518 18.6893 36.151C18.6901 36.1491 18.6911 36.1469 18.6926 36.1447C19.348 34.7786 20.2683 33.7805 21.3781 33.0847C22.524 32.3623 23.7965 31.9899 25.2041 31.9899C25.7627 31.9899 26.2745 32.0473 26.7405 32.1505C26.9767 32.109 27.2203 32.0878 27.4682 32.0878H29.2163C29.5302 32.0878 29.8356 32.1218 30.1303 32.1867C30.4239 32.1218 30.7304 32.0878 31.0442 32.0878H32.8221C33.3563 32.0878 33.867 32.1867 34.3372 32.3676C34.7213 32.2197 35.132 32.1271 35.5608 32.0973C35.8342 31.5154 36.23 30.9823 36.7514 30.4993C37.759 29.5619 38.9581 29.0863 40.3529 29.0863C41.7701 29.0863 42.9703 29.5736 43.9651 30.5099C44.4737 30.9823 44.862 31.5036 45.1334 32.0729C45.5217 32.0175 45.926 31.9899 46.3463 31.9899C46.6421 31.9899 46.9293 32.0037 47.2092 32.0314C47.8773 30.5801 49.3456 29.5725 51.048 29.5725H52.8269C54.5516 29.5725 56.0348 30.6067 56.6913 32.0878H57.7382C59.4065 32.0878 60.9184 33.0688 61.5983 34.5924Z" fill="currentColor" fill-opacity="0.2"></path><path fill-rule="evenodd" clip-rule="evenodd" d="M43.7867 44.5384L43.7846 44.5363C43.5856 44.4141 43.3989 44.2791 43.2245 44.1314C43.1224 44.0448 43.0245 43.9538 42.9309 43.8585C42.7527 43.6771 42.59 43.4799 42.4429 43.2669V43.8585C42.4429 44.046 42.4002 44.2235 42.3238 44.3818C42.1291 44.7856 41.716 45.064 41.2374 45.064H39.4595C39.223 45.064 39.0025 44.996 38.8166 44.8787C38.7149 44.8145 38.6235 44.7355 38.5456 44.6448C38.4668 44.7361 38.3745 44.8155 38.2718 44.88C38.086 44.9965 37.8662 45.064 37.6306 45.064H35.9069C35.6367 45.064 35.3877 44.9757 35.1866 44.8257C34.7153 45.0448 34.1748 45.1629 33.5588 45.1629C32.8363 45.1629 32.2001 44.9927 31.6447 44.6714C31.6404 44.6703 31.6372 44.6682 31.634 44.6661C31.4893 44.5807 31.3524 44.4859 31.2232 44.3815C30.9098 44.1283 30.6425 43.8187 30.4232 43.451V46.6876C30.4232 47.3537 29.8827 47.8931 29.2167 47.8931H27.4335C26.7685 47.8931 26.228 47.3537 26.228 46.6876V45.0725C25.9858 45.1369 25.7193 45.1776 25.428 45.1916C25.3533 45.1952 25.277 45.197 25.1991 45.197C24.3607 45.197 23.6127 44.9757 22.9499 44.5448C22.303 44.1245 21.7816 43.5212 21.4061 42.7201C21.0677 41.9987 20.8837 41.1262 20.8837 40.0963C20.8837 39.0515 21.072 38.1726 21.4146 37.4545C21.4146 37.4545 21.4146 37.4534 21.4156 37.4523C21.8019 36.648 22.3317 36.0511 22.9861 35.6415C23.65 35.2233 24.3884 35.0095 25.2044 35.0095C25.8354 35.0095 26.3578 35.1308 26.7706 35.3308C26.9674 35.1903 27.2079 35.1084 27.4686 35.1084H29.2167C29.4493 35.1084 29.6659 35.1737 29.8498 35.2874C29.9553 35.3526 30.05 35.4337 30.1306 35.5276C30.2101 35.4347 30.3036 35.3542 30.4079 35.2893C30.5924 35.1745 30.8107 35.1084 31.0446 35.1084H32.8225C33.3048 35.1084 33.7208 35.3913 33.9135 35.8003C33.9869 35.9561 34.028 36.1302 34.028 36.3139V40.8488C34.0279 40.9752 34.0279 41.0859 34.0982 41.1613C34.1334 41.1986 34.1858 41.1986 34.2425 41.1986L34.2471 41.1986C34.3174 41.1986 34.3855 41.1773 34.4514 41.1433C34.5089 41.1135 34.5514 41.0645 34.5887 41.006C34.5891 41.0052 34.5893 41.0045 34.5896 41.004C34.5899 41.0031 34.5901 41.0024 34.5908 41.0017C34.6195 40.9561 34.6337 40.9027 34.6406 40.8432C34.6463 40.7945 34.6472 40.7418 34.6472 40.6858V36.3139C34.6472 36.1302 34.6882 35.9561 34.7616 35.8003C34.9544 35.3913 35.3703 35.1084 35.8527 35.1084H37.6306C37.9476 35.1084 38.236 35.2297 38.4509 35.4297C38.2409 35.1127 38.1314 34.7579 38.1173 34.3678C38.1163 34.3389 38.1157 34.3099 38.1157 34.2806C38.1157 33.6646 38.3424 33.1411 38.8073 32.7134C39.2393 32.3102 39.7543 32.1069 40.3533 32.1069C40.9608 32.1069 41.4768 32.3144 41.9045 32.7177C42.3652 33.1443 42.5908 33.6667 42.5908 34.2806C42.5908 34.7552 42.4536 35.1797 42.1705 35.55C42.2403 35.6354 42.2986 35.7304 42.3431 35.8328C42.4073 35.9803 42.4429 36.143 42.4429 36.3139V36.9725C42.6071 36.7324 42.7904 36.513 42.9925 36.3139C43.0693 36.2382 43.1489 36.1654 43.2311 36.0955C43.4091 35.9444 43.5996 35.8069 43.8027 35.683C44.5209 35.2435 45.3667 35.0095 46.3466 35.0095C47.1542 35.0095 47.8681 35.168 48.4895 35.4659C48.6858 35.5579 48.8702 35.6614 49.0428 35.7762C49.3454 35.9776 49.6118 36.2138 49.8428 36.4841V33.7997C49.8428 33.1337 50.3823 32.5932 51.0483 32.5932H52.8273C53.4923 32.5932 54.0328 33.1337 54.0328 33.7987V36.3256L54.7626 35.5095C54.7851 35.4845 54.8085 35.4604 54.8328 35.4375C55.0557 35.227 55.3517 35.1084 55.6606 35.1084H57.7386C58.2142 35.1084 58.6461 35.3882 58.8398 35.8223C59.0334 36.2575 58.9536 36.7661 58.6355 37.1193L56.3607 39.6526L58.8877 43.152C59.1537 43.5191 59.1898 44.0043 58.9845 44.4075C58.7781 44.8108 58.3631 45.064 57.9109 45.064H55.7841C55.3946 45.064 55.0297 44.8767 54.8031 44.5597L54.0328 43.4829V43.8585C54.0328 44.1165 53.9517 44.3555 53.8136 44.5515C53.5952 44.8615 53.2343 45.064 52.8262 45.064H51.0483C50.6696 45.064 50.3318 44.8896 50.1109 44.6167C49.9432 44.4096 49.8428 44.1459 49.8428 43.8585V43.7362C49.8077 43.7777 49.7718 43.8185 49.7349 43.8585C49.5506 44.0588 49.3448 44.2397 49.117 44.4008C48.9393 44.5265 48.7483 44.6402 48.5437 44.7416L48.5373 44.7448C47.9181 45.048 47.1925 45.2119 46.3573 45.2119C45.3571 45.2119 44.5038 44.9767 43.7867 44.5384ZM48.8955 45.4602L48.8892 45.4633C48.1472 45.8267 47.2988 46.0119 46.3573 46.0119C45.2269 46.0119 44.226 45.7445 43.3695 45.221C43.3589 45.2145 43.3485 45.2078 43.3382 45.2009C43.1992 45.1144 43.0652 45.0224 42.9363 44.925C42.5815 45.4892 41.9534 45.864 41.2374 45.864H39.4595C39.1303 45.864 38.8193 45.7845 38.5451 45.6439C38.271 45.7843 37.9601 45.864 37.6306 45.864H35.9069C35.6334 45.864 35.3718 45.8091 35.1332 45.7094C34.6494 45.8777 34.1236 45.9629 33.5588 45.9629C32.7176 45.9629 31.9519 45.7661 31.2743 45.3812C31.2692 45.3786 31.2643 45.376 31.2595 45.3734C31.2454 45.3658 31.2332 45.3587 31.2232 45.3527V46.6876C31.2232 47.7964 30.3236 48.6931 29.2167 48.6931H27.4335C26.3271 48.6931 25.428 47.7959 25.428 46.6876V45.9924C25.3526 45.9955 25.2763 45.997 25.1991 45.997C24.2112 45.997 23.3109 45.7336 22.5141 45.2156C21.7313 44.7071 21.1151 43.9841 20.6818 43.0598C20.2848 42.2133 20.0837 41.2209 20.0837 40.0963C20.0837 38.9633 20.2867 37.9678 20.6852 37.1255C20.6906 37.1134 20.6964 37.1013 20.7026 37.0892C21.1476 36.1695 21.772 35.4579 22.5606 34.964C23.3542 34.4644 24.2405 34.2095 25.2044 34.2095C25.7673 34.2095 26.2783 34.2926 26.7286 34.4493C26.9582 34.3581 27.208 34.3084 27.4686 34.3084H29.2167C29.5457 34.3084 29.8564 34.3876 30.1304 34.528C30.405 34.3874 30.7161 34.3084 31.0446 34.3084H32.8225C33.4276 34.3084 33.9699 34.5762 34.3376 34.9997C34.7052 34.5762 35.2476 34.3084 35.8527 34.3084H37.3159C37.3158 34.2992 37.3157 34.2899 37.3157 34.2806C37.3157 33.4415 37.6356 32.7053 38.2636 32.1266C38.8443 31.5855 39.5539 31.3069 40.3533 31.3069C41.1624 31.3069 41.8742 31.5907 42.4508 32.1332C43.073 32.7106 43.3908 33.4447 43.3908 34.2806C43.3908 34.5489 43.3576 34.8096 43.2899 35.06C43.3214 35.0399 43.3532 35.0201 43.3851 35.0006C44.241 34.4769 45.234 34.2095 46.3466 34.2095C47.2597 34.2095 48.0925 34.389 48.8321 34.743C48.9035 34.7765 48.9738 34.8114 49.0428 34.8477V33.7997C49.0428 32.6928 49.9395 31.7932 51.0483 31.7932H52.8273C53.9341 31.7932 54.8328 32.6918 54.8328 33.7987V34.4872C55.0901 34.3706 55.372 34.3084 55.6606 34.3084H57.7386C58.5292 34.3084 59.2478 34.7733 59.5704 35.4964C59.8919 36.2189 59.7605 37.0656 59.23 37.6547L57.3869 39.7072L59.5355 42.6826C59.979 43.2947 60.038 44.1016 59.6974 44.7705L59.6966 44.772C59.3532 45.4429 58.6631 45.864 57.9109 45.864H55.7841C55.2184 45.864 54.683 45.626 54.3053 45.2137C53.9383 45.6136 53.4112 45.864 52.8262 45.864H51.0483C50.4173 45.864 49.8545 45.5728 49.487 45.1175C49.3019 45.2421 49.1063 45.3555 48.9004 45.4577" fill="currentColor" fill-opacity="0.7"></path></svg>