<svg width="80" height="80" viewBox="0 0 80 80" fill="none" xmlns="http://www.w3.org/2000/svg"><path d="M20.1035 45V34.8182H21.9032V38.6264H21.9778C22.0706 38.4408 22.2015 38.2436 22.3705 38.0348C22.5396 37.8227 22.7683 37.642 23.0566 37.4929C23.345 37.3404 23.7129 37.2642 24.1603 37.2642C24.7503 37.2642 25.2822 37.415 25.7562 37.7166C26.2335 38.0149 26.6113 38.4574 26.8897 39.044C27.1714 39.6274 27.3123 40.3433 27.3123 41.1918C27.3123 42.0303 27.1747 42.7429 26.8996 43.3295C26.6245 43.9162 26.25 44.3636 25.7761 44.6719C25.3021 44.9801 24.7652 45.1342 24.1653 45.1342C23.7278 45.1342 23.3648 45.0613 23.0765 44.9155C22.7881 44.7696 22.5561 44.594 22.3805 44.3885C22.2081 44.1797 22.0739 43.9825 21.9778 43.7969H21.8734V45H20.1035ZM21.8684 41.1818C21.8684 41.6757 21.938 42.1082 22.0772 42.4794C22.2197 42.8506 22.4236 43.1406 22.6887 43.3494C22.9572 43.5549 23.282 43.6577 23.6631 43.6577C24.0609 43.6577 24.394 43.5516 24.6624 43.3395C24.9309 43.1241 25.1331 42.8307 25.269 42.4595C25.4082 42.085 25.4778 41.6591 25.4778 41.1818C25.4778 40.7079 25.4098 40.2869 25.2739 39.919C25.138 39.5511 24.9359 39.2628 24.6674 39.054C24.3989 38.8452 24.0642 38.7408 23.6631 38.7408C23.2787 38.7408 22.9522 38.8419 22.6837 39.044C22.4153 39.2462 22.2114 39.5296 22.0722 39.8942C21.9363 40.2588 21.8684 40.688 21.8684 41.1818ZM28.6423 45V37.3636H30.3873V38.6364H30.4669C30.6061 38.1955 30.8447 37.8558 31.1828 37.6172C31.5242 37.3752 31.9136 37.2543 32.3511 37.2543C32.4505 37.2543 32.5616 37.2592 32.6842 37.2692C32.8101 37.2758 32.9145 37.2874 32.9974 37.304V38.9595C32.9212 38.933 32.8002 38.9098 32.6345 38.8899C32.4721 38.8667 32.3146 38.8551 32.1622 38.8551C31.8341 38.8551 31.5391 38.9264 31.2772 39.0689C31.0187 39.2081 30.8149 39.402 30.6657 39.6506C30.5166 39.8991 30.442 40.1858 30.442 40.5107V45H28.6423ZM37.0096 45.1491C36.2638 45.1491 35.6175 44.9851 35.0707 44.657C34.5238 44.3288 34.0996 43.8698 33.7979 43.2798C33.4996 42.6899 33.3505 42.0005 33.3505 41.2116C33.3505 40.4228 33.4996 39.7318 33.7979 39.1385C34.0996 38.5452 34.5238 38.0845 35.0707 37.7564C35.6175 37.4283 36.2638 37.2642 37.0096 37.2642C37.7553 37.2642 38.4016 37.4283 38.9485 37.7564C39.4954 38.0845 39.918 38.5452 40.2163 39.1385C40.5179 39.7318 40.6687 40.4228 40.6687 41.2116C40.6687 42.0005 40.5179 42.6899 40.2163 43.2798C39.918 43.8698 39.4954 44.3288 38.9485 44.657C38.4016 44.9851 37.7553 45.1491 37.0096 45.1491ZM37.0195 43.7074C37.4239 43.7074 37.762 43.5964 38.0337 43.3743C38.3055 43.1489 38.5077 42.8473 38.6403 42.4695C38.7762 42.0916 38.8441 41.6707 38.8441 41.2067C38.8441 40.7393 38.7762 40.3168 38.6403 39.9389C38.5077 39.5578 38.3055 39.2545 38.0337 39.0291C37.762 38.8037 37.4239 38.6911 37.0195 38.6911C36.6052 38.6911 36.2605 38.8037 35.9854 39.0291C35.7137 39.2545 35.5098 39.5578 35.3739 39.9389C35.2414 40.3168 35.1751 40.7393 35.1751 41.2067C35.1751 41.6707 35.2414 42.0916 35.3739 42.4695C35.5098 42.8473 35.7137 43.1489 35.9854 43.3743C36.2605 43.5964 36.6052 43.7074 37.0195 43.7074ZM43.3534 45L41.1958 37.3636H43.0303L44.3726 42.733H44.4422L45.8144 37.3636H47.629L49.0012 42.7031H49.0757L50.3982 37.3636H52.2377L50.075 45H48.2007L46.7689 39.8395H46.6645L45.2327 45H43.3534ZM55.094 40.5256V45H53.2942V37.3636H55.0144V38.6612H55.1039C55.2796 38.2337 55.5596 37.8939 55.9441 37.642C56.3319 37.3902 56.8108 37.2642 57.3809 37.2642C57.9079 37.2642 58.3669 37.3769 58.758 37.6023C59.1524 37.8277 59.4574 38.1541 59.6728 38.5817C59.8915 39.0092 59.9993 39.5279 59.996 40.1378V45H58.1962V40.4162C58.1962 39.9058 58.0637 39.5064 57.7985 39.218C57.5367 38.9297 57.1737 38.7855 56.7097 38.7855C56.3949 38.7855 56.1148 38.8551 55.8695 38.9943C55.6276 39.1302 55.437 39.3274 55.2978 39.5859C55.1619 39.8445 55.094 40.1577 55.094 40.5256Z" fill="#5D647B"></path><path opacity="0.5" d="M69.8027 40.3032L66.6027 40.3032" stroke="#5D647B" stroke-linecap="round"></path><path opacity="0.5" d="M67.2031 45.3032L64.8031 43.7032" stroke="#5D647B" stroke-linecap="round"></path><path opacity="0.5" d="M67.2031 35.3032L64.8031 36.9032" stroke="#5D647B" stroke-linecap="round"></path><path opacity="0.5" d="M10 41L13.2 41" stroke="#5D647B" stroke-linecap="round"></path><path opacity="0.5" d="M12.5996 36L14.9996 37.6" stroke="#5D647B" stroke-linecap="round"></path><path opacity="0.5" d="M12.5996 46L14.9996 44.4" stroke="#5D647B" stroke-linecap="round"></path></svg>